<mxfile host="Electron" modified="2024-07-15T15:11:50.800Z" agent="Mozilla/5.0 (Macintosh; Intel Mac OS X 10_15_7) AppleWebKit/537.36 (KHTML, like Gecko) draw.io/23.0.2 Chrome/120.0.6099.109 Electron/28.1.0 Safari/537.36" etag="wcKntl5Yiiy6rB5Yl2AS" version="23.0.2" type="device">
  <diagram name="Page-1" id="3m-9vZ2XWQQ6wVadCksw">
    <mxGraphModel dx="4749" dy="3391" grid="0" gridSize="10" guides="1" tooltips="1" connect="1" arrows="1" fold="1" page="0" pageScale="1" pageWidth="827" pageHeight="1169" math="0" shadow="0">
      <root>
        <mxCell id="0" />
        <mxCell id="1" parent="0" />
        <mxCell id="kjuvxPoz1kRf0Xiqibgf-1" value="" style="strokeWidth=1;shadow=0;dashed=0;align=center;html=1;shape=mxgraph.mockup.containers.browserWindow;rSize=0;strokeColor=#666666;strokeColor2=#008cff;strokeColor3=#c4c4c4;mainText=,;recursiveResize=0;movable=1;resizable=1;rotatable=1;deletable=1;editable=1;locked=0;connectable=1;" vertex="1" parent="1">
          <mxGeometry x="-52" y="107" width="926.32" height="640" as="geometry" />
        </mxCell>
        <mxCell id="kjuvxPoz1kRf0Xiqibgf-2" value="Page 1" style="strokeWidth=1;shadow=0;dashed=0;align=center;html=1;shape=mxgraph.mockup.containers.anchor;fontSize=17;fontColor=#666666;align=left;whiteSpace=wrap;" vertex="1" parent="kjuvxPoz1kRf0Xiqibgf-1">
          <mxGeometry x="60" y="12" width="110" height="26" as="geometry" />
        </mxCell>
        <mxCell id="kjuvxPoz1kRf0Xiqibgf-3" value="https://www.StockR.mod.gov.uk" style="strokeWidth=1;shadow=0;dashed=0;align=center;html=1;shape=mxgraph.mockup.containers.anchor;rSize=0;fontSize=17;fontColor=#666666;align=left;" vertex="1" parent="kjuvxPoz1kRf0Xiqibgf-1">
          <mxGeometry x="130" y="60" width="250" height="26" as="geometry" />
        </mxCell>
        <mxCell id="kjuvxPoz1kRf0Xiqibgf-4" value="" style="rounded=0;whiteSpace=wrap;html=1;" vertex="1" parent="kjuvxPoz1kRf0Xiqibgf-1">
          <mxGeometry y="110" width="926" height="60" as="geometry" />
        </mxCell>
        <mxCell id="kjuvxPoz1kRf0Xiqibgf-5" value="TrackR" style="text;html=1;strokeColor=none;fillColor=none;align=center;verticalAlign=middle;whiteSpace=wrap;rounded=0;" vertex="1" parent="kjuvxPoz1kRf0Xiqibgf-1">
          <mxGeometry x="14" y="129" width="60" height="30" as="geometry" />
        </mxCell>
        <mxCell id="kjuvxPoz1kRf0Xiqibgf-6" value="Assign Kit" style="rounded=1;fillColor=#0057D8;strokeColor=none;html=1;whiteSpace=wrap;fontColor=#ffffff;align=center;verticalAlign=middle;fontStyle=0;fontSize=12;sketch=0;" vertex="1" parent="kjuvxPoz1kRf0Xiqibgf-1">
          <mxGeometry x="550" y="121" width="86" height="33" as="geometry" />
        </mxCell>
        <mxCell id="kjuvxPoz1kRf0Xiqibgf-111" value="" style="rounded=0;whiteSpace=wrap;html=1;" vertex="1" parent="kjuvxPoz1kRf0Xiqibgf-1">
          <mxGeometry x="65" y="366" width="774" height="261" as="geometry" />
        </mxCell>
        <mxCell id="kjuvxPoz1kRf0Xiqibgf-112" value="Individual" style="html=1;fillColor=none;strokeColor=none;fontSize=11;align=left;fontColor=#3384FF;fontStyle=1;whiteSpace=wrap" vertex="1" parent="kjuvxPoz1kRf0Xiqibgf-1">
          <mxGeometry x="72" y="336" width="50" height="20" as="geometry" />
        </mxCell>
        <mxCell id="kjuvxPoz1kRf0Xiqibgf-113" value="Aggregate" style="html=1;fillColor=none;strokeColor=none;fontSize=11;align=left;fontColor=#596780;fontStyle=1;whiteSpace=wrap" vertex="1" parent="kjuvxPoz1kRf0Xiqibgf-1">
          <mxGeometry x="142" y="336" width="40" height="20" as="geometry" />
        </mxCell>
        <mxCell id="kjuvxPoz1kRf0Xiqibgf-116" value="" style="shape=line;strokeWidth=2;html=1;strokeColor=#DFE1E5;resizeWidth=1" vertex="1" parent="kjuvxPoz1kRf0Xiqibgf-1">
          <mxGeometry x="72" y="356" width="126" height="10" as="geometry" />
        </mxCell>
        <mxCell id="kjuvxPoz1kRf0Xiqibgf-117" value="" style="shape=line;strokeWidth=2;html=1;strokeColor=#3384FF;resizeWidth=1" vertex="1" parent="kjuvxPoz1kRf0Xiqibgf-1">
          <mxGeometry x="72" y="356" width="62" height="10" as="geometry" />
        </mxCell>
        <mxCell id="kjuvxPoz1kRf0Xiqibgf-123" value="Search by ID" style="text;html=1;strokeColor=none;fillColor=none;align=center;verticalAlign=middle;whiteSpace=wrap;rounded=0;" vertex="1" parent="kjuvxPoz1kRf0Xiqibgf-1">
          <mxGeometry x="67" y="201" width="95" height="30" as="geometry" />
        </mxCell>
        <mxCell id="kjuvxPoz1kRf0Xiqibgf-124" value="Id" style="strokeWidth=1;shadow=0;dashed=0;align=center;html=1;shape=mxgraph.mockup.forms.searchBox;strokeColor=#999999;mainText=;strokeColor2=#008cff;fontColor=#666666;fontSize=17;align=left;spacingLeft=3;whiteSpace=wrap;" vertex="1" parent="kjuvxPoz1kRf0Xiqibgf-1">
          <mxGeometry x="165" y="199" width="150" height="30" as="geometry" />
        </mxCell>
        <mxCell id="kjuvxPoz1kRf0Xiqibgf-131" value="Task" style="rounded=1;fillColor=#F1F2F4;strokeColor=none;html=1;whiteSpace=wrap;fontColor=#596780;align=left;fontSize=12;spacingLeft=10;sketch=0;" vertex="1" parent="kjuvxPoz1kRf0Xiqibgf-1">
          <mxGeometry x="74" y="254" width="89" height="33" as="geometry" />
        </mxCell>
        <mxCell id="kjuvxPoz1kRf0Xiqibgf-132" value="" style="shape=triangle;direction=south;fillColor=#596780;strokeColor=none;html=1;sketch=0;" vertex="1" parent="kjuvxPoz1kRf0Xiqibgf-131">
          <mxGeometry x="1" y="0.5" width="12" height="6" relative="1" as="geometry">
            <mxPoint x="-20" y="-3" as="offset" />
          </mxGeometry>
        </mxCell>
        <mxCell id="kjuvxPoz1kRf0Xiqibgf-133" value="Unit" style="rounded=1;fillColor=#F1F2F4;strokeColor=none;html=1;whiteSpace=wrap;fontColor=#596780;align=left;fontSize=12;spacingLeft=10;sketch=0;" vertex="1" parent="kjuvxPoz1kRf0Xiqibgf-1">
          <mxGeometry x="202" y="254" width="89" height="33" as="geometry" />
        </mxCell>
        <mxCell id="kjuvxPoz1kRf0Xiqibgf-134" value="" style="shape=triangle;direction=south;fillColor=#596780;strokeColor=none;html=1;sketch=0;" vertex="1" parent="kjuvxPoz1kRf0Xiqibgf-133">
          <mxGeometry x="1" y="0.5" width="12" height="6" relative="1" as="geometry">
            <mxPoint x="-20" y="-3" as="offset" />
          </mxGeometry>
        </mxCell>
        <mxCell id="kjuvxPoz1kRf0Xiqibgf-135" value="Team" style="rounded=1;fillColor=#F1F2F4;strokeColor=none;html=1;whiteSpace=wrap;fontColor=#596780;align=left;fontSize=12;spacingLeft=10;sketch=0;" vertex="1" parent="kjuvxPoz1kRf0Xiqibgf-1">
          <mxGeometry x="330" y="254" width="89" height="33" as="geometry" />
        </mxCell>
        <mxCell id="kjuvxPoz1kRf0Xiqibgf-136" value="" style="shape=triangle;direction=south;fillColor=#596780;strokeColor=none;html=1;sketch=0;" vertex="1" parent="kjuvxPoz1kRf0Xiqibgf-135">
          <mxGeometry x="1" y="0.5" width="12" height="6" relative="1" as="geometry">
            <mxPoint x="-20" y="-3" as="offset" />
          </mxGeometry>
        </mxCell>
        <mxCell id="kjuvxPoz1kRf0Xiqibgf-137" value="Status" style="rounded=1;fillColor=#F1F2F4;strokeColor=none;html=1;whiteSpace=wrap;fontColor=#596780;align=left;fontSize=12;spacingLeft=10;sketch=0;" vertex="1" parent="kjuvxPoz1kRf0Xiqibgf-1">
          <mxGeometry x="458" y="254" width="89" height="33" as="geometry" />
        </mxCell>
        <mxCell id="kjuvxPoz1kRf0Xiqibgf-138" value="" style="shape=triangle;direction=south;fillColor=#596780;strokeColor=none;html=1;sketch=0;" vertex="1" parent="kjuvxPoz1kRf0Xiqibgf-137">
          <mxGeometry x="1" y="0.5" width="12" height="6" relative="1" as="geometry">
            <mxPoint x="-20" y="-3" as="offset" />
          </mxGeometry>
        </mxCell>
        <mxCell id="kjuvxPoz1kRf0Xiqibgf-139" value="Equipment Type" style="rounded=1;fillColor=#F1F2F4;strokeColor=none;html=1;whiteSpace=wrap;fontColor=#596780;align=left;fontSize=12;spacingLeft=10;sketch=0;" vertex="1" parent="kjuvxPoz1kRf0Xiqibgf-1">
          <mxGeometry x="586" y="253" width="127" height="33" as="geometry" />
        </mxCell>
        <mxCell id="kjuvxPoz1kRf0Xiqibgf-140" value="" style="shape=triangle;direction=south;fillColor=#596780;strokeColor=none;html=1;sketch=0;" vertex="1" parent="kjuvxPoz1kRf0Xiqibgf-139">
          <mxGeometry x="1" y="0.5" width="12" height="6" relative="1" as="geometry">
            <mxPoint x="-20" y="-3" as="offset" />
          </mxGeometry>
        </mxCell>
        <mxCell id="kjuvxPoz1kRf0Xiqibgf-141" value="Location" style="rounded=1;fillColor=#F1F2F4;strokeColor=none;html=1;whiteSpace=wrap;fontColor=#596780;align=left;fontSize=12;spacingLeft=10;sketch=0;" vertex="1" parent="kjuvxPoz1kRf0Xiqibgf-1">
          <mxGeometry x="73" y="293" width="89" height="33" as="geometry" />
        </mxCell>
        <mxCell id="kjuvxPoz1kRf0Xiqibgf-142" value="" style="shape=triangle;direction=south;fillColor=#596780;strokeColor=none;html=1;sketch=0;" vertex="1" parent="kjuvxPoz1kRf0Xiqibgf-141">
          <mxGeometry x="1" y="0.5" width="12" height="6" relative="1" as="geometry">
            <mxPoint x="-20" y="-3" as="offset" />
          </mxGeometry>
        </mxCell>
        <mxCell id="kjuvxPoz1kRf0Xiqibgf-143" value="Owner" style="rounded=1;fillColor=#F1F2F4;strokeColor=none;html=1;whiteSpace=wrap;fontColor=#596780;align=left;fontSize=12;spacingLeft=10;sketch=0;" vertex="1" parent="kjuvxPoz1kRf0Xiqibgf-1">
          <mxGeometry x="202" y="293" width="89" height="33" as="geometry" />
        </mxCell>
        <mxCell id="kjuvxPoz1kRf0Xiqibgf-144" value="" style="shape=triangle;direction=south;fillColor=#596780;strokeColor=none;html=1;sketch=0;" vertex="1" parent="kjuvxPoz1kRf0Xiqibgf-143">
          <mxGeometry x="1" y="0.5" width="12" height="6" relative="1" as="geometry">
            <mxPoint x="-20" y="-3" as="offset" />
          </mxGeometry>
        </mxCell>
        <mxCell id="kjuvxPoz1kRf0Xiqibgf-145" value="" style="verticalLabelPosition=bottom;shadow=0;dashed=0;align=center;html=1;verticalAlign=top;strokeWidth=1;shape=mxgraph.mockup.navigation.scrollBar;strokeColor=#999999;barPos=20;fillColor2=#99ddff;strokeColor2=none;direction=north;" vertex="1" parent="kjuvxPoz1kRf0Xiqibgf-1">
          <mxGeometry x="65" y="366" width="20" height="261" as="geometry" />
        </mxCell>
        <mxCell id="kjuvxPoz1kRf0Xiqibgf-198" value="Equipment" style="text;strokeColor=none;fillColor=none;align=left;verticalAlign=middle;spacingLeft=4;spacingRight=4;overflow=hidden;points=[[0,0.5],[1,0.5]];portConstraint=eastwest;rotatable=0;whiteSpace=wrap;html=1;" vertex="1" parent="kjuvxPoz1kRf0Xiqibgf-1">
          <mxGeometry x="95" y="372" width="80" height="30" as="geometry" />
        </mxCell>
        <mxCell id="kjuvxPoz1kRf0Xiqibgf-199" value="" style="line;strokeWidth=1;rotatable=0;dashed=0;labelPosition=right;align=left;verticalAlign=middle;spacingTop=0;spacingLeft=6;points=[];portConstraint=eastwest;" vertex="1" parent="kjuvxPoz1kRf0Xiqibgf-1">
          <mxGeometry x="84" y="397" width="754" height="10" as="geometry" />
        </mxCell>
        <mxCell id="kjuvxPoz1kRf0Xiqibgf-200" value="S/N" style="text;strokeColor=none;fillColor=none;align=left;verticalAlign=middle;spacingLeft=4;spacingRight=4;overflow=hidden;points=[[0,0.5],[1,0.5]];portConstraint=eastwest;rotatable=0;whiteSpace=wrap;html=1;" vertex="1" parent="kjuvxPoz1kRf0Xiqibgf-1">
          <mxGeometry x="185" y="372" width="80" height="30" as="geometry" />
        </mxCell>
        <mxCell id="kjuvxPoz1kRf0Xiqibgf-201" value="Status" style="text;strokeColor=none;fillColor=none;align=left;verticalAlign=middle;spacingLeft=4;spacingRight=4;overflow=hidden;points=[[0,0.5],[1,0.5]];portConstraint=eastwest;rotatable=0;whiteSpace=wrap;html=1;" vertex="1" parent="kjuvxPoz1kRf0Xiqibgf-1">
          <mxGeometry x="258" y="372" width="80" height="30" as="geometry" />
        </mxCell>
        <mxCell id="kjuvxPoz1kRf0Xiqibgf-202" value="Task / Team" style="text;strokeColor=none;fillColor=none;align=left;verticalAlign=middle;spacingLeft=4;spacingRight=4;overflow=hidden;points=[[0,0.5],[1,0.5]];portConstraint=eastwest;rotatable=0;whiteSpace=wrap;html=1;" vertex="1" parent="kjuvxPoz1kRf0Xiqibgf-1">
          <mxGeometry x="326" y="372" width="80" height="30" as="geometry" />
        </mxCell>
        <mxCell id="kjuvxPoz1kRf0Xiqibgf-203" value="Unit" style="text;strokeColor=none;fillColor=none;align=left;verticalAlign=middle;spacingLeft=4;spacingRight=4;overflow=hidden;points=[[0,0.5],[1,0.5]];portConstraint=eastwest;rotatable=0;whiteSpace=wrap;html=1;" vertex="1" parent="kjuvxPoz1kRf0Xiqibgf-1">
          <mxGeometry x="426" y="372" width="80" height="30" as="geometry" />
        </mxCell>
        <mxCell id="kjuvxPoz1kRf0Xiqibgf-204" value="Location" style="text;strokeColor=none;fillColor=none;align=left;verticalAlign=middle;spacingLeft=4;spacingRight=4;overflow=hidden;points=[[0,0.5],[1,0.5]];portConstraint=eastwest;rotatable=0;whiteSpace=wrap;html=1;" vertex="1" parent="kjuvxPoz1kRf0Xiqibgf-1">
          <mxGeometry x="521" y="372" width="80" height="30" as="geometry" />
        </mxCell>
        <mxCell id="kjuvxPoz1kRf0Xiqibgf-205" value="Assigned To" style="text;strokeColor=none;fillColor=none;align=left;verticalAlign=middle;spacingLeft=4;spacingRight=4;overflow=hidden;points=[[0,0.5],[1,0.5]];portConstraint=eastwest;rotatable=0;whiteSpace=wrap;html=1;" vertex="1" parent="kjuvxPoz1kRf0Xiqibgf-1">
          <mxGeometry x="636" y="372" width="80" height="30" as="geometry" />
        </mxCell>
        <mxCell id="kjuvxPoz1kRf0Xiqibgf-206" value="" style="endArrow=none;html=1;rounded=0;exitX=0.143;exitY=1;exitDx=0;exitDy=0;exitPerimeter=0;" edge="1" parent="kjuvxPoz1kRf0Xiqibgf-1" source="kjuvxPoz1kRf0Xiqibgf-111">
          <mxGeometry width="50" height="50" relative="1" as="geometry">
            <mxPoint x="126" y="418" as="sourcePoint" />
            <mxPoint x="176" y="368" as="targetPoint" />
          </mxGeometry>
        </mxCell>
        <mxCell id="kjuvxPoz1kRf0Xiqibgf-207" value="" style="endArrow=none;html=1;rounded=0;exitX=0.143;exitY=1;exitDx=0;exitDy=0;exitPerimeter=0;" edge="1" parent="kjuvxPoz1kRf0Xiqibgf-1">
          <mxGeometry width="50" height="50" relative="1" as="geometry">
            <mxPoint x="246" y="625" as="sourcePoint" />
            <mxPoint x="246" y="366" as="targetPoint" />
          </mxGeometry>
        </mxCell>
        <mxCell id="kjuvxPoz1kRf0Xiqibgf-208" value="" style="endArrow=none;html=1;rounded=0;exitX=0.143;exitY=1;exitDx=0;exitDy=0;exitPerimeter=0;" edge="1" parent="kjuvxPoz1kRf0Xiqibgf-1">
          <mxGeometry width="50" height="50" relative="1" as="geometry">
            <mxPoint x="319" y="627" as="sourcePoint" />
            <mxPoint x="319" y="368" as="targetPoint" />
          </mxGeometry>
        </mxCell>
        <mxCell id="kjuvxPoz1kRf0Xiqibgf-209" value="" style="endArrow=none;html=1;rounded=0;exitX=0.143;exitY=1;exitDx=0;exitDy=0;exitPerimeter=0;" edge="1" parent="kjuvxPoz1kRf0Xiqibgf-1">
          <mxGeometry width="50" height="50" relative="1" as="geometry">
            <mxPoint x="416" y="626" as="sourcePoint" />
            <mxPoint x="416" y="367" as="targetPoint" />
          </mxGeometry>
        </mxCell>
        <mxCell id="kjuvxPoz1kRf0Xiqibgf-210" value="" style="endArrow=none;html=1;rounded=0;exitX=0.143;exitY=1;exitDx=0;exitDy=0;exitPerimeter=0;" edge="1" parent="kjuvxPoz1kRf0Xiqibgf-1">
          <mxGeometry width="50" height="50" relative="1" as="geometry">
            <mxPoint x="505" y="625" as="sourcePoint" />
            <mxPoint x="505" y="366" as="targetPoint" />
          </mxGeometry>
        </mxCell>
        <mxCell id="kjuvxPoz1kRf0Xiqibgf-211" value="" style="endArrow=none;html=1;rounded=0;exitX=0.143;exitY=1;exitDx=0;exitDy=0;exitPerimeter=0;" edge="1" parent="kjuvxPoz1kRf0Xiqibgf-1">
          <mxGeometry width="50" height="50" relative="1" as="geometry">
            <mxPoint x="616" y="625" as="sourcePoint" />
            <mxPoint x="616" y="366" as="targetPoint" />
          </mxGeometry>
        </mxCell>
        <mxCell id="kjuvxPoz1kRf0Xiqibgf-212" value="Laptop" style="text;html=1;strokeColor=none;fillColor=none;align=center;verticalAlign=middle;whiteSpace=wrap;rounded=0;" vertex="1" parent="kjuvxPoz1kRf0Xiqibgf-1">
          <mxGeometry x="91" y="407" width="60" height="30" as="geometry" />
        </mxCell>
        <mxCell id="kjuvxPoz1kRf0Xiqibgf-213" value="001" style="text;html=1;strokeColor=none;fillColor=none;align=center;verticalAlign=middle;whiteSpace=wrap;rounded=0;" vertex="1" parent="kjuvxPoz1kRf0Xiqibgf-1">
          <mxGeometry x="180" y="407" width="60" height="30" as="geometry" />
        </mxCell>
        <mxCell id="kjuvxPoz1kRf0Xiqibgf-216" value="" style="rounded=1;whiteSpace=wrap;html=1;fillColor=#d5e8d4;strokeColor=#82b366;" vertex="1" parent="kjuvxPoz1kRf0Xiqibgf-1">
          <mxGeometry x="248" y="412" width="69" height="25" as="geometry" />
        </mxCell>
        <mxCell id="kjuvxPoz1kRf0Xiqibgf-217" value="Appivate" style="text;html=1;strokeColor=none;fillColor=none;align=center;verticalAlign=middle;whiteSpace=wrap;rounded=0;" vertex="1" parent="kjuvxPoz1kRf0Xiqibgf-1">
          <mxGeometry x="426" y="408" width="60" height="29" as="geometry" />
        </mxCell>
        <mxCell id="kjuvxPoz1kRf0Xiqibgf-218" value="ODST" style="text;html=1;strokeColor=none;fillColor=none;align=center;verticalAlign=middle;whiteSpace=wrap;rounded=0;" vertex="1" parent="kjuvxPoz1kRf0Xiqibgf-1">
          <mxGeometry x="338" y="408" width="60" height="29" as="geometry" />
        </mxCell>
        <mxCell id="kjuvxPoz1kRf0Xiqibgf-219" value="Stokenchurch" style="text;html=1;strokeColor=none;fillColor=none;align=center;verticalAlign=middle;whiteSpace=wrap;rounded=0;" vertex="1" parent="kjuvxPoz1kRf0Xiqibgf-1">
          <mxGeometry x="526" y="408" width="60" height="29" as="geometry" />
        </mxCell>
        <mxCell id="kjuvxPoz1kRf0Xiqibgf-220" value="Kieran H" style="text;html=1;strokeColor=none;fillColor=none;align=center;verticalAlign=middle;whiteSpace=wrap;rounded=0;" vertex="1" parent="kjuvxPoz1kRf0Xiqibgf-1">
          <mxGeometry x="745" y="407" width="60" height="29" as="geometry" />
        </mxCell>
        <mxCell id="kjuvxPoz1kRf0Xiqibgf-359" value="" style="endArrow=none;html=1;rounded=0;exitX=0.143;exitY=1;exitDx=0;exitDy=0;exitPerimeter=0;" edge="1" parent="kjuvxPoz1kRf0Xiqibgf-1">
          <mxGeometry width="50" height="50" relative="1" as="geometry">
            <mxPoint x="722" y="626" as="sourcePoint" />
            <mxPoint x="722" y="367" as="targetPoint" />
          </mxGeometry>
        </mxCell>
        <mxCell id="kjuvxPoz1kRf0Xiqibgf-360" value="Owner" style="text;strokeColor=none;fillColor=none;align=left;verticalAlign=middle;spacingLeft=4;spacingRight=4;overflow=hidden;points=[[0,0.5],[1,0.5]];portConstraint=eastwest;rotatable=0;whiteSpace=wrap;html=1;" vertex="1" parent="kjuvxPoz1kRf0Xiqibgf-1">
          <mxGeometry x="745" y="372" width="80" height="30" as="geometry" />
        </mxCell>
        <mxCell id="kjuvxPoz1kRf0Xiqibgf-361" value="Craig A" style="text;html=1;strokeColor=none;fillColor=none;align=center;verticalAlign=middle;whiteSpace=wrap;rounded=0;" vertex="1" parent="kjuvxPoz1kRf0Xiqibgf-1">
          <mxGeometry x="644" y="407" width="60" height="29" as="geometry" />
        </mxCell>
        <mxCell id="kjuvxPoz1kRf0Xiqibgf-572" value="Username" style="text;html=1;strokeColor=none;fillColor=none;align=center;verticalAlign=middle;whiteSpace=wrap;rounded=0;" vertex="1" parent="kjuvxPoz1kRf0Xiqibgf-1">
          <mxGeometry x="854" y="124.5" width="60" height="30" as="geometry" />
        </mxCell>
        <mxCell id="kjuvxPoz1kRf0Xiqibgf-573" value="" style="sketch=0;outlineConnect=0;fontColor=#232F3E;gradientColor=none;fillColor=#232F3D;strokeColor=none;dashed=0;verticalLabelPosition=bottom;verticalAlign=top;align=center;html=1;fontSize=12;fontStyle=0;aspect=fixed;pointerEvents=1;shape=mxgraph.aws4.user;" vertex="1" parent="kjuvxPoz1kRf0Xiqibgf-1">
          <mxGeometry x="815" y="119.5" width="36" height="36" as="geometry" />
        </mxCell>
        <mxCell id="kjuvxPoz1kRf0Xiqibgf-221" value="" style="endArrow=classic;html=1;rounded=0;exitX=0.778;exitY=-0.141;exitDx=0;exitDy=0;exitPerimeter=0;" edge="1" parent="1" source="kjuvxPoz1kRf0Xiqibgf-145">
          <mxGeometry width="50" height="50" relative="1" as="geometry">
            <mxPoint x="-220" y="720" as="sourcePoint" />
            <mxPoint x="-170" y="670" as="targetPoint" />
          </mxGeometry>
        </mxCell>
        <mxCell id="kjuvxPoz1kRf0Xiqibgf-222" value="" style="strokeWidth=1;shadow=0;dashed=0;align=center;html=1;shape=mxgraph.mockup.containers.browserWindow;rSize=0;strokeColor=#666666;strokeColor2=#008cff;strokeColor3=#c4c4c4;mainText=,;recursiveResize=0;movable=1;resizable=1;rotatable=1;deletable=1;editable=1;locked=0;connectable=1;" vertex="1" parent="1">
          <mxGeometry x="-1071" y="675" width="926.32" height="640" as="geometry" />
        </mxCell>
        <mxCell id="kjuvxPoz1kRf0Xiqibgf-223" value="Page 1" style="strokeWidth=1;shadow=0;dashed=0;align=center;html=1;shape=mxgraph.mockup.containers.anchor;fontSize=17;fontColor=#666666;align=left;whiteSpace=wrap;" vertex="1" parent="kjuvxPoz1kRf0Xiqibgf-222">
          <mxGeometry x="60" y="12" width="110" height="26" as="geometry" />
        </mxCell>
        <mxCell id="kjuvxPoz1kRf0Xiqibgf-224" value="https://www.StockR.mod.gov.uk/details/001" style="strokeWidth=1;shadow=0;dashed=0;align=center;html=1;shape=mxgraph.mockup.containers.anchor;rSize=0;fontSize=17;fontColor=#666666;align=left;" vertex="1" parent="kjuvxPoz1kRf0Xiqibgf-222">
          <mxGeometry x="130" y="60" width="250" height="26" as="geometry" />
        </mxCell>
        <mxCell id="kjuvxPoz1kRf0Xiqibgf-225" value="" style="rounded=0;whiteSpace=wrap;html=1;" vertex="1" parent="kjuvxPoz1kRf0Xiqibgf-222">
          <mxGeometry y="110" width="926" height="60" as="geometry" />
        </mxCell>
        <mxCell id="kjuvxPoz1kRf0Xiqibgf-226" value="TrackR" style="text;html=1;strokeColor=none;fillColor=none;align=center;verticalAlign=middle;whiteSpace=wrap;rounded=0;" vertex="1" parent="kjuvxPoz1kRf0Xiqibgf-222">
          <mxGeometry x="14" y="129" width="60" height="30" as="geometry" />
        </mxCell>
        <mxCell id="kjuvxPoz1kRf0Xiqibgf-227" value="Assign Kit" style="rounded=1;fillColor=#3333FF;strokeColor=none;html=1;whiteSpace=wrap;fontColor=#ffffff;align=center;verticalAlign=middle;fontStyle=0;fontSize=12;sketch=0;" vertex="1" parent="kjuvxPoz1kRf0Xiqibgf-222">
          <mxGeometry x="812" y="124" width="86" height="33" as="geometry" />
        </mxCell>
        <mxCell id="kjuvxPoz1kRf0Xiqibgf-271" value="" style="sketch=0;pointerEvents=1;shadow=0;dashed=0;html=1;strokeColor=none;labelPosition=center;verticalLabelPosition=bottom;verticalAlign=top;outlineConnect=0;align=center;shape=mxgraph.office.concepts.home;fillColor=#3333FF;" vertex="1" parent="kjuvxPoz1kRf0Xiqibgf-222">
          <mxGeometry x="756" y="119" width="39.78" height="39" as="geometry" />
        </mxCell>
        <mxCell id="kjuvxPoz1kRf0Xiqibgf-272" value="" style="rounded=1;whiteSpace=wrap;html=1;" vertex="1" parent="kjuvxPoz1kRf0Xiqibgf-222">
          <mxGeometry x="99" y="194" width="716" height="422" as="geometry" />
        </mxCell>
        <mxCell id="kjuvxPoz1kRf0Xiqibgf-273" value="&lt;font style=&quot;font-size: 20px;&quot;&gt;Laptop 001&lt;/font&gt;" style="text;html=1;strokeColor=none;fillColor=none;align=center;verticalAlign=middle;whiteSpace=wrap;rounded=0;" vertex="1" parent="kjuvxPoz1kRf0Xiqibgf-222">
          <mxGeometry x="305" y="236" width="271" height="30" as="geometry" />
        </mxCell>
        <mxCell id="kjuvxPoz1kRf0Xiqibgf-274" value="&lt;font style=&quot;font-size: 20px;&quot;&gt;ALL DETAILS HERE&lt;/font&gt;" style="text;html=1;strokeColor=none;fillColor=none;align=center;verticalAlign=middle;whiteSpace=wrap;rounded=0;" vertex="1" parent="kjuvxPoz1kRf0Xiqibgf-222">
          <mxGeometry x="305" y="290" width="271" height="30" as="geometry" />
        </mxCell>
        <mxCell id="kjuvxPoz1kRf0Xiqibgf-275" value="" style="endArrow=classic;html=1;rounded=0;exitX=0.75;exitY=1;exitDx=0;exitDy=0;" edge="1" parent="1" source="kjuvxPoz1kRf0Xiqibgf-113">
          <mxGeometry width="50" height="50" relative="1" as="geometry">
            <mxPoint x="206" y="944" as="sourcePoint" />
            <mxPoint x="256" y="894" as="targetPoint" />
          </mxGeometry>
        </mxCell>
        <mxCell id="kjuvxPoz1kRf0Xiqibgf-276" value="&lt;h1&gt;Aggregate&lt;/h1&gt;&lt;p&gt;In aggregate view, equipment is grouped up with a counter, so that commanders can quickly see how much of each equipment type we hold, and how much is assigned&lt;/p&gt;" style="text;html=1;strokeColor=none;fillColor=none;spacing=5;spacingTop=-20;whiteSpace=wrap;overflow=hidden;rounded=0;" vertex="1" parent="1">
          <mxGeometry x="221" y="903" width="190" height="120" as="geometry" />
        </mxCell>
        <mxCell id="kjuvxPoz1kRf0Xiqibgf-277" value="" style="sketch=0;outlineConnect=0;fontColor=#232F3E;gradientColor=none;fillColor=#232F3D;strokeColor=none;dashed=0;verticalLabelPosition=bottom;verticalAlign=top;align=center;html=1;fontSize=12;fontStyle=0;aspect=fixed;pointerEvents=1;shape=mxgraph.aws4.user;" vertex="1" parent="1">
          <mxGeometry x="-247" y="-390" width="78" height="78" as="geometry" />
        </mxCell>
        <mxCell id="kjuvxPoz1kRf0Xiqibgf-278" value="Admin User" style="text;html=1;strokeColor=none;fillColor=none;align=center;verticalAlign=middle;whiteSpace=wrap;rounded=0;" vertex="1" parent="1">
          <mxGeometry x="-249" y="-298" width="80" height="30" as="geometry" />
        </mxCell>
        <mxCell id="kjuvxPoz1kRf0Xiqibgf-279" value="" style="strokeWidth=1;shadow=0;dashed=0;align=center;html=1;shape=mxgraph.mockup.containers.browserWindow;rSize=0;strokeColor=#666666;strokeColor2=#008cff;strokeColor3=#c4c4c4;mainText=,;recursiveResize=0;movable=1;resizable=1;rotatable=1;deletable=1;editable=1;locked=0;connectable=1;" vertex="1" parent="1">
          <mxGeometry x="-63" y="-704" width="926.32" height="640" as="geometry" />
        </mxCell>
        <mxCell id="kjuvxPoz1kRf0Xiqibgf-280" value="Page 1" style="strokeWidth=1;shadow=0;dashed=0;align=center;html=1;shape=mxgraph.mockup.containers.anchor;fontSize=17;fontColor=#666666;align=left;whiteSpace=wrap;" vertex="1" parent="kjuvxPoz1kRf0Xiqibgf-279">
          <mxGeometry x="60" y="12" width="110" height="26" as="geometry" />
        </mxCell>
        <mxCell id="kjuvxPoz1kRf0Xiqibgf-281" value="https://www.StockR.mod.gov.uk/login" style="strokeWidth=1;shadow=0;dashed=0;align=center;html=1;shape=mxgraph.mockup.containers.anchor;rSize=0;fontSize=17;fontColor=#666666;align=left;" vertex="1" parent="kjuvxPoz1kRf0Xiqibgf-279">
          <mxGeometry x="131" y="60" width="250" height="26" as="geometry" />
        </mxCell>
        <mxCell id="kjuvxPoz1kRf0Xiqibgf-282" value="" style="rounded=0;whiteSpace=wrap;html=1;" vertex="1" parent="kjuvxPoz1kRf0Xiqibgf-279">
          <mxGeometry y="110" width="926" height="60" as="geometry" />
        </mxCell>
        <mxCell id="kjuvxPoz1kRf0Xiqibgf-283" value="TrackR" style="text;html=1;strokeColor=none;fillColor=none;align=center;verticalAlign=middle;whiteSpace=wrap;rounded=0;" vertex="1" parent="kjuvxPoz1kRf0Xiqibgf-279">
          <mxGeometry x="14" y="129" width="60" height="30" as="geometry" />
        </mxCell>
        <mxCell id="kjuvxPoz1kRf0Xiqibgf-286" value="" style="rounded=1;whiteSpace=wrap;html=1;" vertex="1" parent="kjuvxPoz1kRf0Xiqibgf-279">
          <mxGeometry x="235" y="238" width="465" height="274.06" as="geometry" />
        </mxCell>
        <mxCell id="kjuvxPoz1kRf0Xiqibgf-291" value="Name&lt;sup&gt;&lt;font color=&quot;#ff0000&quot;&gt;*&lt;/font&gt;&lt;/sup&gt;" style="fillColor=none;strokeColor=none;html=1;fontSize=11;fontStyle=0;align=left;fontColor=#596780;fontStyle=1;fontSize=11" vertex="1" parent="kjuvxPoz1kRf0Xiqibgf-279">
          <mxGeometry x="312" y="297" width="240" height="20" as="geometry" />
        </mxCell>
        <mxCell id="kjuvxPoz1kRf0Xiqibgf-292" value="Kieran H" style="rounded=1;arcSize=9;align=left;spacingLeft=5;strokeColor=#4C9AFF;html=1;strokeWidth=2;fontSize=12" vertex="1" parent="kjuvxPoz1kRf0Xiqibgf-279">
          <mxGeometry x="312" y="322" width="290" height="33" as="geometry" />
        </mxCell>
        <mxCell id="kjuvxPoz1kRf0Xiqibgf-293" value="Password&lt;sup&gt;&lt;font color=&quot;#ff0000&quot;&gt;*&lt;/font&gt;&lt;/sup&gt;" style="fillColor=none;strokeColor=none;html=1;fontSize=11;fontStyle=0;align=left;fontColor=#596780;fontStyle=1;fontSize=11" vertex="1" parent="kjuvxPoz1kRf0Xiqibgf-279">
          <mxGeometry x="312" y="385" width="240" height="20" as="geometry" />
        </mxCell>
        <mxCell id="kjuvxPoz1kRf0Xiqibgf-294" value="&amp;#8226;&amp;#8226;&amp;#8226;&amp;#8226;&amp;#8226;&amp;#8226;&amp;#8226;&amp;#8226;" style="rounded=1;arcSize=9;align=left;spacingLeft=5;strokeColor=#4C9AFF;html=1;strokeWidth=2;fontSize=12" vertex="1" parent="kjuvxPoz1kRf0Xiqibgf-279">
          <mxGeometry x="312" y="410" width="290" height="33" as="geometry" />
        </mxCell>
        <mxCell id="kjuvxPoz1kRf0Xiqibgf-289" value="" style="shape=flexArrow;endArrow=classic;html=1;rounded=0;" edge="1" parent="1" source="kjuvxPoz1kRf0Xiqibgf-277">
          <mxGeometry width="50" height="50" relative="1" as="geometry">
            <mxPoint x="-128" y="-301" as="sourcePoint" />
            <mxPoint x="-78" y="-351" as="targetPoint" />
          </mxGeometry>
        </mxCell>
        <mxCell id="kjuvxPoz1kRf0Xiqibgf-296" value="" style="shape=flexArrow;endArrow=classic;html=1;rounded=0;exitX=0.482;exitY=1.002;exitDx=0;exitDy=0;exitPerimeter=0;" edge="1" parent="1" source="kjuvxPoz1kRf0Xiqibgf-279">
          <mxGeometry width="50" height="50" relative="1" as="geometry">
            <mxPoint x="390" y="37" as="sourcePoint" />
            <mxPoint x="383" y="103" as="targetPoint" />
          </mxGeometry>
        </mxCell>
        <mxCell id="kjuvxPoz1kRf0Xiqibgf-299" value="View is based on user type" style="text;html=1;strokeColor=none;fillColor=none;align=center;verticalAlign=middle;whiteSpace=wrap;rounded=0;" vertex="1" parent="1">
          <mxGeometry x="469" y="11" width="60" height="30" as="geometry" />
        </mxCell>
        <mxCell id="kjuvxPoz1kRf0Xiqibgf-300" value="" style="strokeWidth=1;shadow=0;dashed=0;align=center;html=1;shape=mxgraph.mockup.containers.browserWindow;rSize=0;strokeColor=#666666;strokeColor2=#008cff;strokeColor3=#c4c4c4;mainText=,;recursiveResize=0;movable=1;resizable=1;rotatable=1;deletable=1;editable=1;locked=0;connectable=1;" vertex="1" parent="1">
          <mxGeometry x="1411" y="107" width="926.32" height="640" as="geometry" />
        </mxCell>
        <mxCell id="kjuvxPoz1kRf0Xiqibgf-301" value="Page 1" style="strokeWidth=1;shadow=0;dashed=0;align=center;html=1;shape=mxgraph.mockup.containers.anchor;fontSize=17;fontColor=#666666;align=left;whiteSpace=wrap;" vertex="1" parent="kjuvxPoz1kRf0Xiqibgf-300">
          <mxGeometry x="60" y="12" width="110" height="26" as="geometry" />
        </mxCell>
        <mxCell id="kjuvxPoz1kRf0Xiqibgf-302" value="https://www.StockR.mod.gov.uk/assign" style="strokeWidth=1;shadow=0;dashed=0;align=center;html=1;shape=mxgraph.mockup.containers.anchor;rSize=0;fontSize=17;fontColor=#666666;align=left;" vertex="1" parent="kjuvxPoz1kRf0Xiqibgf-300">
          <mxGeometry x="130" y="60" width="250" height="26" as="geometry" />
        </mxCell>
        <mxCell id="kjuvxPoz1kRf0Xiqibgf-303" value="" style="rounded=0;whiteSpace=wrap;html=1;" vertex="1" parent="kjuvxPoz1kRf0Xiqibgf-300">
          <mxGeometry y="110" width="926" height="60" as="geometry" />
        </mxCell>
        <mxCell id="kjuvxPoz1kRf0Xiqibgf-304" value="TrackR" style="text;html=1;strokeColor=none;fillColor=none;align=center;verticalAlign=middle;whiteSpace=wrap;rounded=0;" vertex="1" parent="kjuvxPoz1kRf0Xiqibgf-300">
          <mxGeometry x="14" y="129" width="60" height="30" as="geometry" />
        </mxCell>
        <mxCell id="kjuvxPoz1kRf0Xiqibgf-307" value="New Assignment" style="html=1;fillColor=none;strokeColor=none;fontSize=11;align=left;fontColor=#3384FF;fontStyle=1;whiteSpace=wrap" vertex="1" parent="kjuvxPoz1kRf0Xiqibgf-300">
          <mxGeometry x="32" y="183" width="106" height="20" as="geometry" />
        </mxCell>
        <mxCell id="kjuvxPoz1kRf0Xiqibgf-308" value="Current Assignment" style="html=1;fillColor=none;strokeColor=none;fontSize=11;align=left;fontColor=#596780;fontStyle=1;whiteSpace=wrap" vertex="1" parent="kjuvxPoz1kRf0Xiqibgf-300">
          <mxGeometry x="130" y="183" width="129" height="20" as="geometry" />
        </mxCell>
        <mxCell id="kjuvxPoz1kRf0Xiqibgf-309" value="" style="shape=line;strokeWidth=2;html=1;strokeColor=#DFE1E5;resizeWidth=1" vertex="1" parent="kjuvxPoz1kRf0Xiqibgf-300">
          <mxGeometry x="32" y="203" width="204" height="10" as="geometry" />
        </mxCell>
        <mxCell id="kjuvxPoz1kRf0Xiqibgf-310" value="" style="shape=line;strokeWidth=2;html=1;strokeColor=#3384FF;resizeWidth=1" vertex="1" parent="kjuvxPoz1kRf0Xiqibgf-300">
          <mxGeometry x="32" y="203" width="97" height="10" as="geometry" />
        </mxCell>
        <mxCell id="kjuvxPoz1kRf0Xiqibgf-311" value="Task" style="text;html=1;strokeColor=none;fillColor=none;align=center;verticalAlign=middle;whiteSpace=wrap;rounded=0;" vertex="1" parent="kjuvxPoz1kRf0Xiqibgf-300">
          <mxGeometry x="75.5" y="255" width="95" height="30" as="geometry" />
        </mxCell>
        <mxCell id="kjuvxPoz1kRf0Xiqibgf-315" value="Units" style="rounded=1;fillColor=#F1F2F4;strokeColor=none;html=1;whiteSpace=wrap;fontColor=#596780;align=left;fontSize=12;spacingLeft=10;sketch=0;" vertex="1" parent="kjuvxPoz1kRf0Xiqibgf-300">
          <mxGeometry x="273" y="285" width="89" height="33" as="geometry" />
        </mxCell>
        <mxCell id="kjuvxPoz1kRf0Xiqibgf-316" value="" style="shape=triangle;direction=south;fillColor=#596780;strokeColor=none;html=1;sketch=0;" vertex="1" parent="kjuvxPoz1kRf0Xiqibgf-315">
          <mxGeometry x="1" y="0.5" width="12" height="6" relative="1" as="geometry">
            <mxPoint x="-20" y="-3" as="offset" />
          </mxGeometry>
        </mxCell>
        <mxCell id="kjuvxPoz1kRf0Xiqibgf-317" value="Team" style="rounded=1;fillColor=#F1F2F4;strokeColor=none;html=1;whiteSpace=wrap;fontColor=#596780;align=left;fontSize=12;spacingLeft=10;sketch=0;" vertex="1" parent="kjuvxPoz1kRf0Xiqibgf-300">
          <mxGeometry x="566" y="284" width="89" height="33" as="geometry" />
        </mxCell>
        <mxCell id="kjuvxPoz1kRf0Xiqibgf-318" value="" style="shape=triangle;direction=south;fillColor=#596780;strokeColor=none;html=1;sketch=0;" vertex="1" parent="kjuvxPoz1kRf0Xiqibgf-317">
          <mxGeometry x="1" y="0.5" width="12" height="6" relative="1" as="geometry">
            <mxPoint x="-20" y="-3" as="offset" />
          </mxGeometry>
        </mxCell>
        <mxCell id="kjuvxPoz1kRf0Xiqibgf-325" value="Owner" style="rounded=1;fillColor=#F1F2F4;strokeColor=none;html=1;whiteSpace=wrap;fontColor=#596780;align=left;fontSize=12;spacingLeft=10;sketch=0;" vertex="1" parent="kjuvxPoz1kRf0Xiqibgf-300">
          <mxGeometry x="423" y="285" width="89" height="33" as="geometry" />
        </mxCell>
        <mxCell id="kjuvxPoz1kRf0Xiqibgf-326" value="" style="shape=triangle;direction=south;fillColor=#596780;strokeColor=none;html=1;sketch=0;" vertex="1" parent="kjuvxPoz1kRf0Xiqibgf-325">
          <mxGeometry x="1" y="0.5" width="12" height="6" relative="1" as="geometry">
            <mxPoint x="-20" y="-3" as="offset" />
          </mxGeometry>
        </mxCell>
        <mxCell id="kjuvxPoz1kRf0Xiqibgf-350" value="" style="sketch=0;pointerEvents=1;shadow=0;dashed=0;html=1;strokeColor=none;labelPosition=center;verticalLabelPosition=bottom;verticalAlign=top;outlineConnect=0;align=center;shape=mxgraph.office.concepts.home;fillColor=#3333FF;" vertex="1" parent="kjuvxPoz1kRf0Xiqibgf-300">
          <mxGeometry x="866" y="120.5" width="39.78" height="39" as="geometry" />
        </mxCell>
        <mxCell id="kjuvxPoz1kRf0Xiqibgf-362" value="Dropdown List of Tasks" style="rounded=1;fillColor=#F1F2F4;strokeColor=none;html=1;whiteSpace=wrap;fontColor=#596780;align=left;fontSize=12;spacingLeft=10;sketch=0;" vertex="1" parent="kjuvxPoz1kRf0Xiqibgf-300">
          <mxGeometry x="55" y="285" width="174" height="33" as="geometry" />
        </mxCell>
        <mxCell id="kjuvxPoz1kRf0Xiqibgf-363" value="" style="shape=triangle;direction=south;fillColor=#596780;strokeColor=none;html=1;sketch=0;" vertex="1" parent="kjuvxPoz1kRf0Xiqibgf-362">
          <mxGeometry x="1" y="0.5" width="12" height="6" relative="1" as="geometry">
            <mxPoint x="-20" y="-3" as="offset" />
          </mxGeometry>
        </mxCell>
        <mxCell id="kjuvxPoz1kRf0Xiqibgf-364" value="Unit" style="text;html=1;strokeColor=none;fillColor=none;align=center;verticalAlign=middle;whiteSpace=wrap;rounded=0;" vertex="1" parent="kjuvxPoz1kRf0Xiqibgf-300">
          <mxGeometry x="273" y="253" width="95" height="30" as="geometry" />
        </mxCell>
        <mxCell id="kjuvxPoz1kRf0Xiqibgf-367" value="" style="endArrow=none;html=1;rounded=0;" edge="1" parent="kjuvxPoz1kRf0Xiqibgf-300" source="kjuvxPoz1kRf0Xiqibgf-376">
          <mxGeometry width="50" height="50" relative="1" as="geometry">
            <mxPoint x="121.99555555555571" y="247" as="sourcePoint" />
            <mxPoint x="616.44" y="247" as="targetPoint" />
          </mxGeometry>
        </mxCell>
        <mxCell id="kjuvxPoz1kRf0Xiqibgf-369" value="Team?" style="text;html=1;strokeColor=none;fillColor=none;align=center;verticalAlign=middle;whiteSpace=wrap;rounded=0;" vertex="1" parent="kjuvxPoz1kRf0Xiqibgf-300">
          <mxGeometry x="560" y="254" width="95" height="30" as="geometry" />
        </mxCell>
        <mxCell id="kjuvxPoz1kRf0Xiqibgf-370" value="Owner" style="text;html=1;strokeColor=none;fillColor=none;align=center;verticalAlign=middle;whiteSpace=wrap;rounded=0;" vertex="1" parent="kjuvxPoz1kRf0Xiqibgf-300">
          <mxGeometry x="420" y="255" width="95" height="30" as="geometry" />
        </mxCell>
        <mxCell id="kjuvxPoz1kRf0Xiqibgf-371" value="" style="ellipse;whiteSpace=wrap;html=1;aspect=fixed;fillColor=#dae8fc;strokeColor=#6c8ebf;" vertex="1" parent="kjuvxPoz1kRf0Xiqibgf-300">
          <mxGeometry x="116.5" y="240" width="13" height="13" as="geometry" />
        </mxCell>
        <mxCell id="kjuvxPoz1kRf0Xiqibgf-373" value="" style="ellipse;whiteSpace=wrap;html=1;aspect=fixed;fillColor=#dae8fc;strokeColor=#6c8ebf;" vertex="1" parent="kjuvxPoz1kRf0Xiqibgf-300">
          <mxGeometry x="314" y="240" width="13" height="13" as="geometry" />
        </mxCell>
        <mxCell id="kjuvxPoz1kRf0Xiqibgf-374" value="" style="endArrow=none;html=1;rounded=0;" edge="1" parent="kjuvxPoz1kRf0Xiqibgf-300" source="kjuvxPoz1kRf0Xiqibgf-371" target="kjuvxPoz1kRf0Xiqibgf-373">
          <mxGeometry width="50" height="50" relative="1" as="geometry">
            <mxPoint x="1540" y="354" as="sourcePoint" />
            <mxPoint x="2027.44" y="354" as="targetPoint" />
          </mxGeometry>
        </mxCell>
        <mxCell id="kjuvxPoz1kRf0Xiqibgf-376" value="" style="ellipse;whiteSpace=wrap;html=1;aspect=fixed;fillColor=#dae8fc;strokeColor=#6c8ebf;" vertex="1" parent="kjuvxPoz1kRf0Xiqibgf-300">
          <mxGeometry x="604" y="239" width="13" height="13" as="geometry" />
        </mxCell>
        <mxCell id="kjuvxPoz1kRf0Xiqibgf-377" value="" style="endArrow=none;html=1;rounded=0;" edge="1" parent="kjuvxPoz1kRf0Xiqibgf-300" source="kjuvxPoz1kRf0Xiqibgf-373" target="kjuvxPoz1kRf0Xiqibgf-376">
          <mxGeometry width="50" height="50" relative="1" as="geometry">
            <mxPoint x="1738" y="354" as="sourcePoint" />
            <mxPoint x="2027.44" y="354" as="targetPoint" />
          </mxGeometry>
        </mxCell>
        <mxCell id="kjuvxPoz1kRf0Xiqibgf-375" value="" style="ellipse;whiteSpace=wrap;html=1;aspect=fixed;fillColor=#dae8fc;strokeColor=#6c8ebf;" vertex="1" parent="kjuvxPoz1kRf0Xiqibgf-300">
          <mxGeometry x="461" y="239" width="13" height="13" as="geometry" />
        </mxCell>
        <mxCell id="kjuvxPoz1kRf0Xiqibgf-403" value="" style="rounded=0;whiteSpace=wrap;html=1;" vertex="1" parent="kjuvxPoz1kRf0Xiqibgf-300">
          <mxGeometry x="55" y="389" width="822" height="227" as="geometry" />
        </mxCell>
        <mxCell id="kjuvxPoz1kRf0Xiqibgf-404" value="" style="verticalLabelPosition=bottom;shadow=0;dashed=0;align=center;html=1;verticalAlign=top;strokeWidth=1;shape=mxgraph.mockup.navigation.scrollBar;strokeColor=#999999;barPos=20;fillColor2=#99ddff;strokeColor2=none;direction=north;" vertex="1" parent="kjuvxPoz1kRf0Xiqibgf-300">
          <mxGeometry x="55" y="389" width="20" height="227" as="geometry" />
        </mxCell>
        <mxCell id="kjuvxPoz1kRf0Xiqibgf-405" value="Equipment" style="text;strokeColor=none;fillColor=none;align=left;verticalAlign=middle;spacingLeft=4;spacingRight=4;overflow=hidden;points=[[0,0.5],[1,0.5]];portConstraint=eastwest;rotatable=0;whiteSpace=wrap;html=1;" vertex="1" parent="kjuvxPoz1kRf0Xiqibgf-300">
          <mxGeometry x="85" y="395" width="80" height="30" as="geometry" />
        </mxCell>
        <mxCell id="kjuvxPoz1kRf0Xiqibgf-406" value="S/N" style="text;strokeColor=none;fillColor=none;align=left;verticalAlign=middle;spacingLeft=4;spacingRight=4;overflow=hidden;points=[[0,0.5],[1,0.5]];portConstraint=eastwest;rotatable=0;whiteSpace=wrap;html=1;" vertex="1" parent="kjuvxPoz1kRf0Xiqibgf-300">
          <mxGeometry x="175" y="395" width="80" height="30" as="geometry" />
        </mxCell>
        <mxCell id="kjuvxPoz1kRf0Xiqibgf-407" value="Status" style="text;strokeColor=none;fillColor=none;align=left;verticalAlign=middle;spacingLeft=4;spacingRight=4;overflow=hidden;points=[[0,0.5],[1,0.5]];portConstraint=eastwest;rotatable=0;whiteSpace=wrap;html=1;" vertex="1" parent="kjuvxPoz1kRf0Xiqibgf-300">
          <mxGeometry x="248" y="395" width="80" height="30" as="geometry" />
        </mxCell>
        <mxCell id="kjuvxPoz1kRf0Xiqibgf-408" value="Task / Team" style="text;strokeColor=none;fillColor=none;align=left;verticalAlign=middle;spacingLeft=4;spacingRight=4;overflow=hidden;points=[[0,0.5],[1,0.5]];portConstraint=eastwest;rotatable=0;whiteSpace=wrap;html=1;" vertex="1" parent="kjuvxPoz1kRf0Xiqibgf-300">
          <mxGeometry x="316" y="395" width="80" height="30" as="geometry" />
        </mxCell>
        <mxCell id="kjuvxPoz1kRf0Xiqibgf-409" value="Unit" style="text;strokeColor=none;fillColor=none;align=left;verticalAlign=middle;spacingLeft=4;spacingRight=4;overflow=hidden;points=[[0,0.5],[1,0.5]];portConstraint=eastwest;rotatable=0;whiteSpace=wrap;html=1;" vertex="1" parent="kjuvxPoz1kRf0Xiqibgf-300">
          <mxGeometry x="416" y="395" width="80" height="30" as="geometry" />
        </mxCell>
        <mxCell id="kjuvxPoz1kRf0Xiqibgf-410" value="Location" style="text;strokeColor=none;fillColor=none;align=left;verticalAlign=middle;spacingLeft=4;spacingRight=4;overflow=hidden;points=[[0,0.5],[1,0.5]];portConstraint=eastwest;rotatable=0;whiteSpace=wrap;html=1;" vertex="1" parent="kjuvxPoz1kRf0Xiqibgf-300">
          <mxGeometry x="511" y="395" width="80" height="30" as="geometry" />
        </mxCell>
        <mxCell id="kjuvxPoz1kRf0Xiqibgf-411" value="Assigned To" style="text;strokeColor=none;fillColor=none;align=left;verticalAlign=middle;spacingLeft=4;spacingRight=4;overflow=hidden;points=[[0,0.5],[1,0.5]];portConstraint=eastwest;rotatable=0;whiteSpace=wrap;html=1;" vertex="1" parent="kjuvxPoz1kRf0Xiqibgf-300">
          <mxGeometry x="626" y="395" width="80" height="30" as="geometry" />
        </mxCell>
        <mxCell id="kjuvxPoz1kRf0Xiqibgf-412" value="" style="endArrow=none;html=1;rounded=0;" edge="1" parent="kjuvxPoz1kRf0Xiqibgf-300">
          <mxGeometry width="50" height="50" relative="1" as="geometry">
            <mxPoint x="166" y="616" as="sourcePoint" />
            <mxPoint x="166" y="390" as="targetPoint" />
          </mxGeometry>
        </mxCell>
        <mxCell id="kjuvxPoz1kRf0Xiqibgf-413" value="" style="endArrow=none;html=1;rounded=0;" edge="1" parent="kjuvxPoz1kRf0Xiqibgf-300">
          <mxGeometry width="50" height="50" relative="1" as="geometry">
            <mxPoint x="236" y="615" as="sourcePoint" />
            <mxPoint x="236" y="388" as="targetPoint" />
          </mxGeometry>
        </mxCell>
        <mxCell id="kjuvxPoz1kRf0Xiqibgf-414" value="" style="endArrow=none;html=1;rounded=0;" edge="1" parent="kjuvxPoz1kRf0Xiqibgf-300">
          <mxGeometry width="50" height="50" relative="1" as="geometry">
            <mxPoint x="309" y="616" as="sourcePoint" />
            <mxPoint x="309" y="390" as="targetPoint" />
          </mxGeometry>
        </mxCell>
        <mxCell id="kjuvxPoz1kRf0Xiqibgf-415" value="" style="endArrow=none;html=1;rounded=0;" edge="1" parent="kjuvxPoz1kRf0Xiqibgf-300">
          <mxGeometry width="50" height="50" relative="1" as="geometry">
            <mxPoint x="406" y="615" as="sourcePoint" />
            <mxPoint x="406" y="389" as="targetPoint" />
          </mxGeometry>
        </mxCell>
        <mxCell id="kjuvxPoz1kRf0Xiqibgf-416" value="" style="endArrow=none;html=1;rounded=0;" edge="1" parent="kjuvxPoz1kRf0Xiqibgf-300">
          <mxGeometry width="50" height="50" relative="1" as="geometry">
            <mxPoint x="495" y="614" as="sourcePoint" />
            <mxPoint x="495" y="388" as="targetPoint" />
          </mxGeometry>
        </mxCell>
        <mxCell id="kjuvxPoz1kRf0Xiqibgf-417" value="" style="endArrow=none;html=1;rounded=0;" edge="1" parent="kjuvxPoz1kRf0Xiqibgf-300">
          <mxGeometry width="50" height="50" relative="1" as="geometry">
            <mxPoint x="606" y="615" as="sourcePoint" />
            <mxPoint x="606" y="388" as="targetPoint" />
          </mxGeometry>
        </mxCell>
        <mxCell id="kjuvxPoz1kRf0Xiqibgf-418" value="Laptop" style="text;html=1;strokeColor=none;fillColor=none;align=center;verticalAlign=middle;whiteSpace=wrap;rounded=0;" vertex="1" parent="kjuvxPoz1kRf0Xiqibgf-300">
          <mxGeometry x="81" y="430" width="60" height="30" as="geometry" />
        </mxCell>
        <mxCell id="kjuvxPoz1kRf0Xiqibgf-419" value="001" style="text;html=1;strokeColor=none;fillColor=none;align=center;verticalAlign=middle;whiteSpace=wrap;rounded=0;" vertex="1" parent="kjuvxPoz1kRf0Xiqibgf-300">
          <mxGeometry x="170" y="430" width="60" height="30" as="geometry" />
        </mxCell>
        <mxCell id="kjuvxPoz1kRf0Xiqibgf-420" value="" style="rounded=1;whiteSpace=wrap;html=1;fillColor=#d5e8d4;strokeColor=#82b366;" vertex="1" parent="kjuvxPoz1kRf0Xiqibgf-300">
          <mxGeometry x="238" y="435" width="69" height="25" as="geometry" />
        </mxCell>
        <mxCell id="kjuvxPoz1kRf0Xiqibgf-421" value="Appivate" style="text;html=1;strokeColor=none;fillColor=none;align=center;verticalAlign=middle;whiteSpace=wrap;rounded=0;" vertex="1" parent="kjuvxPoz1kRf0Xiqibgf-300">
          <mxGeometry x="416" y="431" width="60" height="29" as="geometry" />
        </mxCell>
        <mxCell id="kjuvxPoz1kRf0Xiqibgf-422" value="ODST" style="text;html=1;strokeColor=none;fillColor=none;align=center;verticalAlign=middle;whiteSpace=wrap;rounded=0;" vertex="1" parent="kjuvxPoz1kRf0Xiqibgf-300">
          <mxGeometry x="328" y="431" width="60" height="29" as="geometry" />
        </mxCell>
        <mxCell id="kjuvxPoz1kRf0Xiqibgf-423" value="Stokenchurch" style="text;html=1;strokeColor=none;fillColor=none;align=center;verticalAlign=middle;whiteSpace=wrap;rounded=0;" vertex="1" parent="kjuvxPoz1kRf0Xiqibgf-300">
          <mxGeometry x="516" y="431" width="60" height="29" as="geometry" />
        </mxCell>
        <mxCell id="kjuvxPoz1kRf0Xiqibgf-424" value="Kieran H" style="text;html=1;strokeColor=none;fillColor=none;align=center;verticalAlign=middle;whiteSpace=wrap;rounded=0;" vertex="1" parent="kjuvxPoz1kRf0Xiqibgf-300">
          <mxGeometry x="719" y="430" width="60" height="29" as="geometry" />
        </mxCell>
        <mxCell id="kjuvxPoz1kRf0Xiqibgf-425" value="" style="endArrow=none;html=1;rounded=0;" edge="1" parent="kjuvxPoz1kRf0Xiqibgf-300">
          <mxGeometry width="50" height="50" relative="1" as="geometry">
            <mxPoint x="712" y="614" as="sourcePoint" />
            <mxPoint x="712" y="389" as="targetPoint" />
          </mxGeometry>
        </mxCell>
        <mxCell id="kjuvxPoz1kRf0Xiqibgf-426" value="Owner" style="text;strokeColor=none;fillColor=none;align=left;verticalAlign=middle;spacingLeft=4;spacingRight=4;overflow=hidden;points=[[0,0.5],[1,0.5]];portConstraint=eastwest;rotatable=0;whiteSpace=wrap;html=1;" vertex="1" parent="kjuvxPoz1kRf0Xiqibgf-300">
          <mxGeometry x="719" y="395" width="80" height="30" as="geometry" />
        </mxCell>
        <mxCell id="kjuvxPoz1kRf0Xiqibgf-427" value="Craig A" style="text;html=1;strokeColor=none;fillColor=none;align=center;verticalAlign=middle;whiteSpace=wrap;rounded=0;" vertex="1" parent="kjuvxPoz1kRf0Xiqibgf-300">
          <mxGeometry x="634" y="430" width="60" height="29" as="geometry" />
        </mxCell>
        <mxCell id="kjuvxPoz1kRf0Xiqibgf-428" value="" style="endArrow=none;html=1;rounded=0;" edge="1" parent="kjuvxPoz1kRf0Xiqibgf-300">
          <mxGeometry width="50" height="50" relative="1" as="geometry">
            <mxPoint x="794" y="614" as="sourcePoint" />
            <mxPoint x="794" y="388" as="targetPoint" />
          </mxGeometry>
        </mxCell>
        <mxCell id="kjuvxPoz1kRf0Xiqibgf-429" value="Select" style="text;strokeColor=none;fillColor=none;align=left;verticalAlign=middle;spacingLeft=4;spacingRight=4;overflow=hidden;points=[[0,0.5],[1,0.5]];portConstraint=eastwest;rotatable=0;whiteSpace=wrap;html=1;" vertex="1" parent="kjuvxPoz1kRf0Xiqibgf-300">
          <mxGeometry x="797" y="393" width="80" height="30" as="geometry" />
        </mxCell>
        <mxCell id="kjuvxPoz1kRf0Xiqibgf-430" value="" style="shape=ellipse;labelPosition=right;align=left;strokeColor=none;fillColor=#009587;opacity=10;sketch=0;html=1;" vertex="1" parent="kjuvxPoz1kRf0Xiqibgf-300">
          <mxGeometry x="808" y="421" width="48" height="48" as="geometry" />
        </mxCell>
        <mxCell id="kjuvxPoz1kRf0Xiqibgf-431" value="" style="dashed=0;labelPosition=right;align=left;shape=mxgraph.gmdl.checkbox;strokeColor=none;fillColor=#009587;strokeWidth=2;sketch=0;html=1;" vertex="1" parent="kjuvxPoz1kRf0Xiqibgf-430">
          <mxGeometry x="16" y="16" width="16" height="16" as="geometry" />
        </mxCell>
        <mxCell id="kjuvxPoz1kRf0Xiqibgf-432" value="Status" style="rounded=1;fillColor=#F1F2F4;strokeColor=none;html=1;whiteSpace=wrap;fontColor=#596780;align=left;fontSize=12;spacingLeft=10;sketch=0;" vertex="1" parent="kjuvxPoz1kRf0Xiqibgf-300">
          <mxGeometry x="236" y="354" width="75" height="33" as="geometry" />
        </mxCell>
        <mxCell id="kjuvxPoz1kRf0Xiqibgf-433" value="" style="shape=triangle;direction=south;fillColor=#596780;strokeColor=none;html=1;sketch=0;" vertex="1" parent="kjuvxPoz1kRf0Xiqibgf-432">
          <mxGeometry x="1" y="0.5" width="12" height="6" relative="1" as="geometry">
            <mxPoint x="-20" y="-3" as="offset" />
          </mxGeometry>
        </mxCell>
        <mxCell id="kjuvxPoz1kRf0Xiqibgf-434" value="Equipment" style="rounded=1;fillColor=#F1F2F4;strokeColor=none;html=1;whiteSpace=wrap;fontColor=#596780;align=left;fontSize=12;spacingLeft=10;sketch=0;" vertex="1" parent="kjuvxPoz1kRf0Xiqibgf-300">
          <mxGeometry x="75.5" y="356" width="91.5" height="33" as="geometry" />
        </mxCell>
        <mxCell id="kjuvxPoz1kRf0Xiqibgf-435" value="" style="shape=triangle;direction=south;fillColor=#596780;strokeColor=none;html=1;sketch=0;" vertex="1" parent="kjuvxPoz1kRf0Xiqibgf-434">
          <mxGeometry x="1" y="0.5" width="12" height="6" relative="1" as="geometry">
            <mxPoint x="-20" y="-3" as="offset" />
          </mxGeometry>
        </mxCell>
        <mxCell id="kjuvxPoz1kRf0Xiqibgf-436" value="" style="strokeWidth=1;shadow=0;dashed=0;align=center;html=1;shape=mxgraph.mockup.containers.browserWindow;rSize=0;strokeColor=#666666;strokeColor2=#008cff;strokeColor3=#c4c4c4;mainText=,;recursiveResize=0;movable=1;resizable=1;rotatable=1;deletable=1;editable=1;locked=0;connectable=1;" vertex="1" parent="1">
          <mxGeometry x="1895" y="-671" width="926.32" height="640" as="geometry" />
        </mxCell>
        <mxCell id="kjuvxPoz1kRf0Xiqibgf-437" value="Page 1" style="strokeWidth=1;shadow=0;dashed=0;align=center;html=1;shape=mxgraph.mockup.containers.anchor;fontSize=17;fontColor=#666666;align=left;whiteSpace=wrap;" vertex="1" parent="kjuvxPoz1kRf0Xiqibgf-436">
          <mxGeometry x="60" y="12" width="110" height="26" as="geometry" />
        </mxCell>
        <mxCell id="kjuvxPoz1kRf0Xiqibgf-438" value="https://www.StockR.mod.gov.uk/current" style="strokeWidth=1;shadow=0;dashed=0;align=center;html=1;shape=mxgraph.mockup.containers.anchor;rSize=0;fontSize=17;fontColor=#666666;align=left;" vertex="1" parent="kjuvxPoz1kRf0Xiqibgf-436">
          <mxGeometry x="130" y="60" width="250" height="26" as="geometry" />
        </mxCell>
        <mxCell id="kjuvxPoz1kRf0Xiqibgf-439" value="" style="rounded=0;whiteSpace=wrap;html=1;" vertex="1" parent="kjuvxPoz1kRf0Xiqibgf-436">
          <mxGeometry y="110" width="926" height="60" as="geometry" />
        </mxCell>
        <mxCell id="kjuvxPoz1kRf0Xiqibgf-440" value="TrackR" style="text;html=1;strokeColor=none;fillColor=none;align=center;verticalAlign=middle;whiteSpace=wrap;rounded=0;" vertex="1" parent="kjuvxPoz1kRf0Xiqibgf-436">
          <mxGeometry x="14" y="129" width="60" height="30" as="geometry" />
        </mxCell>
        <mxCell id="kjuvxPoz1kRf0Xiqibgf-441" value="&lt;font color=&quot;#808080&quot;&gt;New Assignment&lt;/font&gt;" style="html=1;fillColor=none;strokeColor=none;fontSize=11;align=left;fontColor=#3384FF;fontStyle=1;whiteSpace=wrap" vertex="1" parent="kjuvxPoz1kRf0Xiqibgf-436">
          <mxGeometry x="32" y="183" width="106" height="20" as="geometry" />
        </mxCell>
        <mxCell id="kjuvxPoz1kRf0Xiqibgf-442" value="&lt;font color=&quot;#3399ff&quot;&gt;Current Assignment&lt;/font&gt;" style="html=1;fillColor=none;strokeColor=none;fontSize=11;align=left;fontColor=#596780;fontStyle=1;whiteSpace=wrap" vertex="1" parent="kjuvxPoz1kRf0Xiqibgf-436">
          <mxGeometry x="130" y="183" width="129" height="20" as="geometry" />
        </mxCell>
        <mxCell id="kjuvxPoz1kRf0Xiqibgf-443" value="" style="shape=line;strokeWidth=2;html=1;strokeColor=#DFE1E5;resizeWidth=1" vertex="1" parent="kjuvxPoz1kRf0Xiqibgf-436">
          <mxGeometry x="32" y="203" width="204" height="10" as="geometry" />
        </mxCell>
        <mxCell id="kjuvxPoz1kRf0Xiqibgf-444" value="" style="shape=line;strokeWidth=2;html=1;strokeColor=#3384FF;resizeWidth=1" vertex="1" parent="kjuvxPoz1kRf0Xiqibgf-436">
          <mxGeometry x="132" y="203" width="103" height="10" as="geometry" />
        </mxCell>
        <mxCell id="kjuvxPoz1kRf0Xiqibgf-452" value="" style="sketch=0;pointerEvents=1;shadow=0;dashed=0;html=1;strokeColor=none;labelPosition=center;verticalLabelPosition=bottom;verticalAlign=top;outlineConnect=0;align=center;shape=mxgraph.office.concepts.home;fillColor=#3333FF;" vertex="1" parent="kjuvxPoz1kRf0Xiqibgf-436">
          <mxGeometry x="866" y="120.5" width="39.78" height="39" as="geometry" />
        </mxCell>
        <mxCell id="kjuvxPoz1kRf0Xiqibgf-456" value="" style="endArrow=none;html=1;rounded=0;" edge="1" parent="kjuvxPoz1kRf0Xiqibgf-436">
          <mxGeometry width="50" height="50" relative="1" as="geometry">
            <mxPoint x="616.8737743919519" y="246.77475487839047" as="sourcePoint" />
            <mxPoint x="616.44" y="247" as="targetPoint" />
          </mxGeometry>
        </mxCell>
        <mxCell id="kjuvxPoz1kRf0Xiqibgf-465" value="" style="rounded=0;whiteSpace=wrap;html=1;" vertex="1" parent="kjuvxPoz1kRf0Xiqibgf-436">
          <mxGeometry x="55" y="389" width="760" height="227" as="geometry" />
        </mxCell>
        <mxCell id="kjuvxPoz1kRf0Xiqibgf-466" value="" style="verticalLabelPosition=bottom;shadow=0;dashed=0;align=center;html=1;verticalAlign=top;strokeWidth=1;shape=mxgraph.mockup.navigation.scrollBar;strokeColor=#999999;barPos=20;fillColor2=#99ddff;strokeColor2=none;direction=north;" vertex="1" parent="kjuvxPoz1kRf0Xiqibgf-436">
          <mxGeometry x="55" y="389" width="20" height="227" as="geometry" />
        </mxCell>
        <mxCell id="kjuvxPoz1kRf0Xiqibgf-467" value="Equipment" style="text;strokeColor=none;fillColor=none;align=left;verticalAlign=middle;spacingLeft=4;spacingRight=4;overflow=hidden;points=[[0,0.5],[1,0.5]];portConstraint=eastwest;rotatable=0;whiteSpace=wrap;html=1;" vertex="1" parent="kjuvxPoz1kRf0Xiqibgf-436">
          <mxGeometry x="85" y="395" width="80" height="30" as="geometry" />
        </mxCell>
        <mxCell id="kjuvxPoz1kRf0Xiqibgf-468" value="S/N" style="text;strokeColor=none;fillColor=none;align=left;verticalAlign=middle;spacingLeft=4;spacingRight=4;overflow=hidden;points=[[0,0.5],[1,0.5]];portConstraint=eastwest;rotatable=0;whiteSpace=wrap;html=1;" vertex="1" parent="kjuvxPoz1kRf0Xiqibgf-436">
          <mxGeometry x="175" y="395" width="80" height="30" as="geometry" />
        </mxCell>
        <mxCell id="kjuvxPoz1kRf0Xiqibgf-469" value="Status" style="text;strokeColor=none;fillColor=none;align=left;verticalAlign=middle;spacingLeft=4;spacingRight=4;overflow=hidden;points=[[0,0.5],[1,0.5]];portConstraint=eastwest;rotatable=0;whiteSpace=wrap;html=1;" vertex="1" parent="kjuvxPoz1kRf0Xiqibgf-436">
          <mxGeometry x="248" y="395" width="80" height="30" as="geometry" />
        </mxCell>
        <mxCell id="kjuvxPoz1kRf0Xiqibgf-470" value="Task / Team" style="text;strokeColor=none;fillColor=none;align=left;verticalAlign=middle;spacingLeft=4;spacingRight=4;overflow=hidden;points=[[0,0.5],[1,0.5]];portConstraint=eastwest;rotatable=0;whiteSpace=wrap;html=1;" vertex="1" parent="kjuvxPoz1kRf0Xiqibgf-436">
          <mxGeometry x="316" y="395" width="80" height="30" as="geometry" />
        </mxCell>
        <mxCell id="kjuvxPoz1kRf0Xiqibgf-471" value="Unit" style="text;strokeColor=none;fillColor=none;align=left;verticalAlign=middle;spacingLeft=4;spacingRight=4;overflow=hidden;points=[[0,0.5],[1,0.5]];portConstraint=eastwest;rotatable=0;whiteSpace=wrap;html=1;" vertex="1" parent="kjuvxPoz1kRf0Xiqibgf-436">
          <mxGeometry x="416" y="395" width="80" height="30" as="geometry" />
        </mxCell>
        <mxCell id="kjuvxPoz1kRf0Xiqibgf-472" value="Location" style="text;strokeColor=none;fillColor=none;align=left;verticalAlign=middle;spacingLeft=4;spacingRight=4;overflow=hidden;points=[[0,0.5],[1,0.5]];portConstraint=eastwest;rotatable=0;whiteSpace=wrap;html=1;" vertex="1" parent="kjuvxPoz1kRf0Xiqibgf-436">
          <mxGeometry x="511" y="395" width="80" height="30" as="geometry" />
        </mxCell>
        <mxCell id="kjuvxPoz1kRf0Xiqibgf-473" value="Assigned To" style="text;strokeColor=none;fillColor=none;align=left;verticalAlign=middle;spacingLeft=4;spacingRight=4;overflow=hidden;points=[[0,0.5],[1,0.5]];portConstraint=eastwest;rotatable=0;whiteSpace=wrap;html=1;" vertex="1" parent="kjuvxPoz1kRf0Xiqibgf-436">
          <mxGeometry x="626" y="395" width="80" height="30" as="geometry" />
        </mxCell>
        <mxCell id="kjuvxPoz1kRf0Xiqibgf-474" value="" style="endArrow=none;html=1;rounded=0;" edge="1" parent="kjuvxPoz1kRf0Xiqibgf-436">
          <mxGeometry width="50" height="50" relative="1" as="geometry">
            <mxPoint x="166" y="616" as="sourcePoint" />
            <mxPoint x="166" y="390" as="targetPoint" />
          </mxGeometry>
        </mxCell>
        <mxCell id="kjuvxPoz1kRf0Xiqibgf-475" value="" style="endArrow=none;html=1;rounded=0;" edge="1" parent="kjuvxPoz1kRf0Xiqibgf-436">
          <mxGeometry width="50" height="50" relative="1" as="geometry">
            <mxPoint x="236" y="615" as="sourcePoint" />
            <mxPoint x="236" y="388" as="targetPoint" />
          </mxGeometry>
        </mxCell>
        <mxCell id="kjuvxPoz1kRf0Xiqibgf-476" value="" style="endArrow=none;html=1;rounded=0;" edge="1" parent="kjuvxPoz1kRf0Xiqibgf-436">
          <mxGeometry width="50" height="50" relative="1" as="geometry">
            <mxPoint x="309" y="616" as="sourcePoint" />
            <mxPoint x="309" y="390" as="targetPoint" />
          </mxGeometry>
        </mxCell>
        <mxCell id="kjuvxPoz1kRf0Xiqibgf-477" value="" style="endArrow=none;html=1;rounded=0;" edge="1" parent="kjuvxPoz1kRf0Xiqibgf-436">
          <mxGeometry width="50" height="50" relative="1" as="geometry">
            <mxPoint x="406" y="615" as="sourcePoint" />
            <mxPoint x="406" y="389" as="targetPoint" />
          </mxGeometry>
        </mxCell>
        <mxCell id="kjuvxPoz1kRf0Xiqibgf-478" value="" style="endArrow=none;html=1;rounded=0;" edge="1" parent="kjuvxPoz1kRf0Xiqibgf-436">
          <mxGeometry width="50" height="50" relative="1" as="geometry">
            <mxPoint x="495" y="614" as="sourcePoint" />
            <mxPoint x="495" y="388" as="targetPoint" />
          </mxGeometry>
        </mxCell>
        <mxCell id="kjuvxPoz1kRf0Xiqibgf-479" value="" style="endArrow=none;html=1;rounded=0;" edge="1" parent="kjuvxPoz1kRf0Xiqibgf-436">
          <mxGeometry width="50" height="50" relative="1" as="geometry">
            <mxPoint x="606" y="615" as="sourcePoint" />
            <mxPoint x="606" y="388" as="targetPoint" />
          </mxGeometry>
        </mxCell>
        <mxCell id="kjuvxPoz1kRf0Xiqibgf-480" value="Laptop" style="text;html=1;strokeColor=none;fillColor=none;align=center;verticalAlign=middle;whiteSpace=wrap;rounded=0;" vertex="1" parent="kjuvxPoz1kRf0Xiqibgf-436">
          <mxGeometry x="81" y="430" width="60" height="30" as="geometry" />
        </mxCell>
        <mxCell id="kjuvxPoz1kRf0Xiqibgf-481" value="001" style="text;html=1;strokeColor=none;fillColor=none;align=center;verticalAlign=middle;whiteSpace=wrap;rounded=0;" vertex="1" parent="kjuvxPoz1kRf0Xiqibgf-436">
          <mxGeometry x="170" y="430" width="60" height="30" as="geometry" />
        </mxCell>
        <mxCell id="kjuvxPoz1kRf0Xiqibgf-483" value="Appivate" style="text;html=1;strokeColor=none;fillColor=none;align=center;verticalAlign=middle;whiteSpace=wrap;rounded=0;" vertex="1" parent="kjuvxPoz1kRf0Xiqibgf-436">
          <mxGeometry x="416" y="431" width="60" height="29" as="geometry" />
        </mxCell>
        <mxCell id="kjuvxPoz1kRf0Xiqibgf-484" value="ODST" style="text;html=1;strokeColor=none;fillColor=none;align=center;verticalAlign=middle;whiteSpace=wrap;rounded=0;" vertex="1" parent="kjuvxPoz1kRf0Xiqibgf-436">
          <mxGeometry x="328" y="431" width="60" height="29" as="geometry" />
        </mxCell>
        <mxCell id="kjuvxPoz1kRf0Xiqibgf-485" value="Stokenchurch" style="text;html=1;strokeColor=none;fillColor=none;align=center;verticalAlign=middle;whiteSpace=wrap;rounded=0;" vertex="1" parent="kjuvxPoz1kRf0Xiqibgf-436">
          <mxGeometry x="516" y="431" width="60" height="29" as="geometry" />
        </mxCell>
        <mxCell id="kjuvxPoz1kRf0Xiqibgf-486" value="Kieran H" style="text;html=1;strokeColor=none;fillColor=none;align=center;verticalAlign=middle;whiteSpace=wrap;rounded=0;" vertex="1" parent="kjuvxPoz1kRf0Xiqibgf-436">
          <mxGeometry x="719" y="430" width="60" height="29" as="geometry" />
        </mxCell>
        <mxCell id="kjuvxPoz1kRf0Xiqibgf-487" value="" style="endArrow=none;html=1;rounded=0;" edge="1" parent="kjuvxPoz1kRf0Xiqibgf-436">
          <mxGeometry width="50" height="50" relative="1" as="geometry">
            <mxPoint x="712" y="614" as="sourcePoint" />
            <mxPoint x="712" y="389" as="targetPoint" />
          </mxGeometry>
        </mxCell>
        <mxCell id="kjuvxPoz1kRf0Xiqibgf-488" value="Owner" style="text;strokeColor=none;fillColor=none;align=left;verticalAlign=middle;spacingLeft=4;spacingRight=4;overflow=hidden;points=[[0,0.5],[1,0.5]];portConstraint=eastwest;rotatable=0;whiteSpace=wrap;html=1;" vertex="1" parent="kjuvxPoz1kRf0Xiqibgf-436">
          <mxGeometry x="719" y="395" width="80" height="30" as="geometry" />
        </mxCell>
        <mxCell id="kjuvxPoz1kRf0Xiqibgf-489" value="Craig A" style="text;html=1;strokeColor=none;fillColor=none;align=center;verticalAlign=middle;whiteSpace=wrap;rounded=0;" vertex="1" parent="kjuvxPoz1kRf0Xiqibgf-436">
          <mxGeometry x="634" y="430" width="60" height="29" as="geometry" />
        </mxCell>
        <mxCell id="kjuvxPoz1kRf0Xiqibgf-490" value="" style="endArrow=none;html=1;rounded=0;" edge="1" parent="kjuvxPoz1kRf0Xiqibgf-436">
          <mxGeometry width="50" height="50" relative="1" as="geometry">
            <mxPoint x="814" y="615" as="sourcePoint" />
            <mxPoint x="814" y="389" as="targetPoint" />
          </mxGeometry>
        </mxCell>
        <mxCell id="kjuvxPoz1kRf0Xiqibgf-496" value="Equipment" style="rounded=1;fillColor=#F1F2F4;strokeColor=none;html=1;whiteSpace=wrap;fontColor=#596780;align=left;fontSize=12;spacingLeft=10;sketch=0;" vertex="1" parent="kjuvxPoz1kRf0Xiqibgf-436">
          <mxGeometry x="75.5" y="356" width="91.5" height="33" as="geometry" />
        </mxCell>
        <mxCell id="kjuvxPoz1kRf0Xiqibgf-497" value="" style="shape=triangle;direction=south;fillColor=#596780;strokeColor=none;html=1;sketch=0;" vertex="1" parent="kjuvxPoz1kRf0Xiqibgf-496">
          <mxGeometry x="1" y="0.5" width="12" height="6" relative="1" as="geometry">
            <mxPoint x="-20" y="-3" as="offset" />
          </mxGeometry>
        </mxCell>
        <mxCell id="kjuvxPoz1kRf0Xiqibgf-501" value="Change" style="rounded=1;fillColor=#F1F2F4;strokeColor=none;html=1;whiteSpace=wrap;fontColor=#596780;align=left;fontSize=12;spacingLeft=10;sketch=0;" vertex="1" parent="kjuvxPoz1kRf0Xiqibgf-436">
          <mxGeometry x="240" y="428" width="64" height="33" as="geometry" />
        </mxCell>
        <mxCell id="kjuvxPoz1kRf0Xiqibgf-502" value="" style="shape=triangle;direction=south;fillColor=#596780;strokeColor=none;html=1;sketch=0;" vertex="1" parent="kjuvxPoz1kRf0Xiqibgf-501">
          <mxGeometry x="1" y="0.5" width="12" height="6" relative="1" as="geometry">
            <mxPoint x="-20" y="-3" as="offset" />
          </mxGeometry>
        </mxCell>
        <mxCell id="kjuvxPoz1kRf0Xiqibgf-503" value="Change" style="rounded=1;fillColor=#F1F2F4;strokeColor=none;html=1;whiteSpace=wrap;fontColor=#596780;align=left;fontSize=12;spacingLeft=10;sketch=0;" vertex="1" parent="kjuvxPoz1kRf0Xiqibgf-436">
          <mxGeometry x="712.5" y="426" width="100.5" height="33" as="geometry" />
        </mxCell>
        <mxCell id="kjuvxPoz1kRf0Xiqibgf-504" value="" style="shape=triangle;direction=south;fillColor=#596780;strokeColor=none;html=1;sketch=0;" vertex="1" parent="kjuvxPoz1kRf0Xiqibgf-503">
          <mxGeometry x="1" y="0.5" width="12" height="6" relative="1" as="geometry">
            <mxPoint x="-20" y="-3" as="offset" />
          </mxGeometry>
        </mxCell>
        <mxCell id="kjuvxPoz1kRf0Xiqibgf-505" value="Change" style="rounded=1;fillColor=#F1F2F4;strokeColor=none;html=1;whiteSpace=wrap;fontColor=#596780;align=left;fontSize=12;spacingLeft=10;sketch=0;" vertex="1" parent="kjuvxPoz1kRf0Xiqibgf-436">
          <mxGeometry x="609" y="428.5" width="100.5" height="33" as="geometry" />
        </mxCell>
        <mxCell id="kjuvxPoz1kRf0Xiqibgf-506" value="" style="shape=triangle;direction=south;fillColor=#596780;strokeColor=none;html=1;sketch=0;" vertex="1" parent="kjuvxPoz1kRf0Xiqibgf-505">
          <mxGeometry x="1" y="0.5" width="12" height="6" relative="1" as="geometry">
            <mxPoint x="-20" y="-3" as="offset" />
          </mxGeometry>
        </mxCell>
        <mxCell id="kjuvxPoz1kRf0Xiqibgf-507" value="Change" style="rounded=1;fillColor=#F1F2F4;strokeColor=none;html=1;whiteSpace=wrap;fontColor=#596780;align=left;fontSize=12;spacingLeft=10;sketch=0;" vertex="1" parent="kjuvxPoz1kRf0Xiqibgf-436">
          <mxGeometry x="500.75" y="430" width="100.5" height="33" as="geometry" />
        </mxCell>
        <mxCell id="kjuvxPoz1kRf0Xiqibgf-508" value="" style="shape=triangle;direction=south;fillColor=#596780;strokeColor=none;html=1;sketch=0;" vertex="1" parent="kjuvxPoz1kRf0Xiqibgf-507">
          <mxGeometry x="1" y="0.5" width="12" height="6" relative="1" as="geometry">
            <mxPoint x="-20" y="-3" as="offset" />
          </mxGeometry>
        </mxCell>
        <mxCell id="kjuvxPoz1kRf0Xiqibgf-509" value="Change" style="rounded=1;fillColor=#F1F2F4;strokeColor=none;html=1;whiteSpace=wrap;fontColor=#596780;align=left;fontSize=12;spacingLeft=10;sketch=0;" vertex="1" parent="kjuvxPoz1kRf0Xiqibgf-436">
          <mxGeometry x="412" y="431" width="79" height="33" as="geometry" />
        </mxCell>
        <mxCell id="kjuvxPoz1kRf0Xiqibgf-510" value="" style="shape=triangle;direction=south;fillColor=#596780;strokeColor=none;html=1;sketch=0;" vertex="1" parent="kjuvxPoz1kRf0Xiqibgf-509">
          <mxGeometry x="1" y="0.5" width="12" height="6" relative="1" as="geometry">
            <mxPoint x="-20" y="-3" as="offset" />
          </mxGeometry>
        </mxCell>
        <mxCell id="kjuvxPoz1kRf0Xiqibgf-511" value="Change" style="rounded=1;fillColor=#F1F2F4;strokeColor=none;html=1;whiteSpace=wrap;fontColor=#596780;align=left;fontSize=12;spacingLeft=10;sketch=0;" vertex="1" parent="kjuvxPoz1kRf0Xiqibgf-436">
          <mxGeometry x="316" y="430" width="81" height="33" as="geometry" />
        </mxCell>
        <mxCell id="kjuvxPoz1kRf0Xiqibgf-512" value="" style="shape=triangle;direction=south;fillColor=#596780;strokeColor=none;html=1;sketch=0;" vertex="1" parent="kjuvxPoz1kRf0Xiqibgf-511">
          <mxGeometry x="1" y="0.5" width="12" height="6" relative="1" as="geometry">
            <mxPoint x="-20" y="-3" as="offset" />
          </mxGeometry>
        </mxCell>
        <mxCell id="kjuvxPoz1kRf0Xiqibgf-549" value="Search by ID" style="text;html=1;strokeColor=none;fillColor=none;align=center;verticalAlign=middle;whiteSpace=wrap;rounded=0;" vertex="1" parent="kjuvxPoz1kRf0Xiqibgf-436">
          <mxGeometry x="74" y="218" width="95" height="30" as="geometry" />
        </mxCell>
        <mxCell id="kjuvxPoz1kRf0Xiqibgf-550" value="Id" style="strokeWidth=1;shadow=0;dashed=0;align=center;html=1;shape=mxgraph.mockup.forms.searchBox;strokeColor=#999999;mainText=;strokeColor2=#008cff;fontColor=#666666;fontSize=17;align=left;spacingLeft=3;whiteSpace=wrap;" vertex="1" parent="kjuvxPoz1kRf0Xiqibgf-436">
          <mxGeometry x="172" y="216" width="150" height="30" as="geometry" />
        </mxCell>
        <mxCell id="kjuvxPoz1kRf0Xiqibgf-551" value="Task" style="rounded=1;fillColor=#F1F2F4;strokeColor=none;html=1;whiteSpace=wrap;fontColor=#596780;align=left;fontSize=12;spacingLeft=10;sketch=0;" vertex="1" parent="kjuvxPoz1kRf0Xiqibgf-436">
          <mxGeometry x="81" y="271" width="89" height="33" as="geometry" />
        </mxCell>
        <mxCell id="kjuvxPoz1kRf0Xiqibgf-552" value="" style="shape=triangle;direction=south;fillColor=#596780;strokeColor=none;html=1;sketch=0;" vertex="1" parent="kjuvxPoz1kRf0Xiqibgf-551">
          <mxGeometry x="1" y="0.5" width="12" height="6" relative="1" as="geometry">
            <mxPoint x="-20" y="-3" as="offset" />
          </mxGeometry>
        </mxCell>
        <mxCell id="kjuvxPoz1kRf0Xiqibgf-553" value="Unit" style="rounded=1;fillColor=#F1F2F4;strokeColor=none;html=1;whiteSpace=wrap;fontColor=#596780;align=left;fontSize=12;spacingLeft=10;sketch=0;" vertex="1" parent="kjuvxPoz1kRf0Xiqibgf-436">
          <mxGeometry x="209" y="271" width="89" height="33" as="geometry" />
        </mxCell>
        <mxCell id="kjuvxPoz1kRf0Xiqibgf-554" value="" style="shape=triangle;direction=south;fillColor=#596780;strokeColor=none;html=1;sketch=0;" vertex="1" parent="kjuvxPoz1kRf0Xiqibgf-553">
          <mxGeometry x="1" y="0.5" width="12" height="6" relative="1" as="geometry">
            <mxPoint x="-20" y="-3" as="offset" />
          </mxGeometry>
        </mxCell>
        <mxCell id="kjuvxPoz1kRf0Xiqibgf-555" value="Team" style="rounded=1;fillColor=#F1F2F4;strokeColor=none;html=1;whiteSpace=wrap;fontColor=#596780;align=left;fontSize=12;spacingLeft=10;sketch=0;" vertex="1" parent="kjuvxPoz1kRf0Xiqibgf-436">
          <mxGeometry x="337" y="271" width="89" height="33" as="geometry" />
        </mxCell>
        <mxCell id="kjuvxPoz1kRf0Xiqibgf-556" value="" style="shape=triangle;direction=south;fillColor=#596780;strokeColor=none;html=1;sketch=0;" vertex="1" parent="kjuvxPoz1kRf0Xiqibgf-555">
          <mxGeometry x="1" y="0.5" width="12" height="6" relative="1" as="geometry">
            <mxPoint x="-20" y="-3" as="offset" />
          </mxGeometry>
        </mxCell>
        <mxCell id="kjuvxPoz1kRf0Xiqibgf-557" value="Status" style="rounded=1;fillColor=#F1F2F4;strokeColor=none;html=1;whiteSpace=wrap;fontColor=#596780;align=left;fontSize=12;spacingLeft=10;sketch=0;" vertex="1" parent="kjuvxPoz1kRf0Xiqibgf-436">
          <mxGeometry x="337" y="312" width="89" height="33" as="geometry" />
        </mxCell>
        <mxCell id="kjuvxPoz1kRf0Xiqibgf-558" value="" style="shape=triangle;direction=south;fillColor=#596780;strokeColor=none;html=1;sketch=0;" vertex="1" parent="kjuvxPoz1kRf0Xiqibgf-557">
          <mxGeometry x="1" y="0.5" width="12" height="6" relative="1" as="geometry">
            <mxPoint x="-20" y="-3" as="offset" />
          </mxGeometry>
        </mxCell>
        <mxCell id="kjuvxPoz1kRf0Xiqibgf-559" value="Equipment Type" style="rounded=1;fillColor=#F1F2F4;strokeColor=none;html=1;whiteSpace=wrap;fontColor=#596780;align=left;fontSize=12;spacingLeft=10;sketch=0;" vertex="1" parent="kjuvxPoz1kRf0Xiqibgf-436">
          <mxGeometry x="464" y="271" width="127" height="33" as="geometry" />
        </mxCell>
        <mxCell id="kjuvxPoz1kRf0Xiqibgf-560" value="" style="shape=triangle;direction=south;fillColor=#596780;strokeColor=none;html=1;sketch=0;" vertex="1" parent="kjuvxPoz1kRf0Xiqibgf-559">
          <mxGeometry x="1" y="0.5" width="12" height="6" relative="1" as="geometry">
            <mxPoint x="-20" y="-3" as="offset" />
          </mxGeometry>
        </mxCell>
        <mxCell id="kjuvxPoz1kRf0Xiqibgf-561" value="Location" style="rounded=1;fillColor=#F1F2F4;strokeColor=none;html=1;whiteSpace=wrap;fontColor=#596780;align=left;fontSize=12;spacingLeft=10;sketch=0;" vertex="1" parent="kjuvxPoz1kRf0Xiqibgf-436">
          <mxGeometry x="80" y="310" width="89" height="33" as="geometry" />
        </mxCell>
        <mxCell id="kjuvxPoz1kRf0Xiqibgf-562" value="" style="shape=triangle;direction=south;fillColor=#596780;strokeColor=none;html=1;sketch=0;" vertex="1" parent="kjuvxPoz1kRf0Xiqibgf-561">
          <mxGeometry x="1" y="0.5" width="12" height="6" relative="1" as="geometry">
            <mxPoint x="-20" y="-3" as="offset" />
          </mxGeometry>
        </mxCell>
        <mxCell id="kjuvxPoz1kRf0Xiqibgf-563" value="Owner" style="rounded=1;fillColor=#F1F2F4;strokeColor=none;html=1;whiteSpace=wrap;fontColor=#596780;align=left;fontSize=12;spacingLeft=10;sketch=0;" vertex="1" parent="kjuvxPoz1kRf0Xiqibgf-436">
          <mxGeometry x="209" y="310" width="89" height="33" as="geometry" />
        </mxCell>
        <mxCell id="kjuvxPoz1kRf0Xiqibgf-564" value="" style="shape=triangle;direction=south;fillColor=#596780;strokeColor=none;html=1;sketch=0;" vertex="1" parent="kjuvxPoz1kRf0Xiqibgf-563">
          <mxGeometry x="1" y="0.5" width="12" height="6" relative="1" as="geometry">
            <mxPoint x="-20" y="-3" as="offset" />
          </mxGeometry>
        </mxCell>
        <mxCell id="kjuvxPoz1kRf0Xiqibgf-565" value="" style="rounded=0;whiteSpace=wrap;html=1;" vertex="1" parent="kjuvxPoz1kRf0Xiqibgf-436">
          <mxGeometry x="666" y="203" width="214" height="166" as="geometry" />
        </mxCell>
        <mxCell id="kjuvxPoz1kRf0Xiqibgf-566" value="Close Task" style="text;html=1;strokeColor=none;fillColor=none;align=center;verticalAlign=middle;whiteSpace=wrap;rounded=0;" vertex="1" parent="kjuvxPoz1kRf0Xiqibgf-436">
          <mxGeometry x="680" y="222" width="103" height="30" as="geometry" />
        </mxCell>
        <mxCell id="kjuvxPoz1kRf0Xiqibgf-567" value="All Kit Returned" style="text;html=1;strokeColor=none;fillColor=none;align=center;verticalAlign=middle;whiteSpace=wrap;rounded=0;" vertex="1" parent="kjuvxPoz1kRf0Xiqibgf-436">
          <mxGeometry x="694" y="248" width="103" height="30" as="geometry" />
        </mxCell>
        <mxCell id="kjuvxPoz1kRf0Xiqibgf-568" value="Close" style="rounded=1;fillColor=#f8cecc;strokeColor=#b85450;html=1;whiteSpace=wrap;align=center;verticalAlign=middle;fontStyle=0;fontSize=12;sketch=0;" vertex="1" parent="kjuvxPoz1kRf0Xiqibgf-436">
          <mxGeometry x="730" y="304" width="86" height="33" as="geometry" />
        </mxCell>
        <mxCell id="kjuvxPoz1kRf0Xiqibgf-570" value="" style="dashed=0;labelPosition=right;align=left;shape=mxgraph.gmdl.checkbox;strokeColor=none;fillColor=#009587;strokeWidth=2;aspect=fixed;sketch=0;html=1;" vertex="1" parent="kjuvxPoz1kRf0Xiqibgf-436">
          <mxGeometry x="819" y="229" width="16" height="16" as="geometry" />
        </mxCell>
        <mxCell id="kjuvxPoz1kRf0Xiqibgf-571" value="" style="dashed=0;labelPosition=right;align=left;shape=mxgraph.gmdl.checkbox;strokeColor=none;fillColor=#009587;strokeWidth=2;aspect=fixed;sketch=0;html=1;" vertex="1" parent="kjuvxPoz1kRf0Xiqibgf-436">
          <mxGeometry x="819" y="255" width="16" height="16" as="geometry" />
        </mxCell>
        <mxCell id="kjuvxPoz1kRf0Xiqibgf-574" value="Manage" style="rounded=1;fillColor=#0057D8;strokeColor=none;html=1;whiteSpace=wrap;fontColor=#ffffff;align=center;verticalAlign=middle;fontStyle=0;fontSize=12;sketch=0;" vertex="1" parent="1">
          <mxGeometry x="631" y="230.5" width="86" height="33" as="geometry" />
        </mxCell>
        <mxCell id="kjuvxPoz1kRf0Xiqibgf-576" value="" style="endArrow=classic;html=1;rounded=0;exitX=1;exitY=0.5;exitDx=0;exitDy=0;entryX=0;entryY=0;entryDx=0;entryDy=0;" edge="1" parent="1" source="kjuvxPoz1kRf0Xiqibgf-6" target="kjuvxPoz1kRf0Xiqibgf-303">
          <mxGeometry width="50" height="50" relative="1" as="geometry">
            <mxPoint x="1105" y="283" as="sourcePoint" />
            <mxPoint x="1155" y="233" as="targetPoint" />
          </mxGeometry>
        </mxCell>
        <mxCell id="kjuvxPoz1kRf0Xiqibgf-577" value="" style="strokeWidth=1;shadow=0;dashed=0;align=center;html=1;shape=mxgraph.mockup.containers.browserWindow;rSize=0;strokeColor=#666666;strokeColor2=#008cff;strokeColor3=#c4c4c4;mainText=,;recursiveResize=0;movable=1;resizable=1;rotatable=1;deletable=1;editable=1;locked=0;connectable=1;" vertex="1" parent="1">
          <mxGeometry x="555" y="969" width="926.32" height="640" as="geometry" />
        </mxCell>
        <mxCell id="kjuvxPoz1kRf0Xiqibgf-578" value="Page 1" style="strokeWidth=1;shadow=0;dashed=0;align=center;html=1;shape=mxgraph.mockup.containers.anchor;fontSize=17;fontColor=#666666;align=left;whiteSpace=wrap;" vertex="1" parent="kjuvxPoz1kRf0Xiqibgf-577">
          <mxGeometry x="60" y="12" width="110" height="26" as="geometry" />
        </mxCell>
        <mxCell id="kjuvxPoz1kRf0Xiqibgf-579" value="https://www.StockR.mod.gov.uk/manage" style="strokeWidth=1;shadow=0;dashed=0;align=center;html=1;shape=mxgraph.mockup.containers.anchor;rSize=0;fontSize=17;fontColor=#666666;align=left;" vertex="1" parent="kjuvxPoz1kRf0Xiqibgf-577">
          <mxGeometry x="130" y="60" width="250" height="26" as="geometry" />
        </mxCell>
        <mxCell id="kjuvxPoz1kRf0Xiqibgf-580" value="" style="rounded=0;whiteSpace=wrap;html=1;" vertex="1" parent="kjuvxPoz1kRf0Xiqibgf-577">
          <mxGeometry y="110" width="926" height="60" as="geometry" />
        </mxCell>
        <mxCell id="kjuvxPoz1kRf0Xiqibgf-581" value="TrackR" style="text;html=1;strokeColor=none;fillColor=none;align=center;verticalAlign=middle;whiteSpace=wrap;rounded=0;" vertex="1" parent="kjuvxPoz1kRf0Xiqibgf-577">
          <mxGeometry x="14" y="129" width="60" height="30" as="geometry" />
        </mxCell>
        <mxCell id="kjuvxPoz1kRf0Xiqibgf-590" value="Assign Kit" style="rounded=1;fillColor=#3333FF;strokeColor=none;html=1;whiteSpace=wrap;fontColor=#ffffff;align=center;verticalAlign=middle;fontStyle=0;fontSize=12;sketch=0;" vertex="1" parent="kjuvxPoz1kRf0Xiqibgf-577">
          <mxGeometry x="814" y="125" width="86" height="33" as="geometry" />
        </mxCell>
        <mxCell id="kjuvxPoz1kRf0Xiqibgf-591" value="" style="sketch=0;pointerEvents=1;shadow=0;dashed=0;html=1;strokeColor=none;labelPosition=center;verticalLabelPosition=bottom;verticalAlign=top;outlineConnect=0;align=center;shape=mxgraph.office.concepts.home;fillColor=#3333FF;" vertex="1" parent="kjuvxPoz1kRf0Xiqibgf-577">
          <mxGeometry x="758" y="120" width="39.78" height="39" as="geometry" />
        </mxCell>
        <mxCell id="kjuvxPoz1kRf0Xiqibgf-592" value="" style="rounded=0;whiteSpace=wrap;html=1;" vertex="1" parent="kjuvxPoz1kRf0Xiqibgf-577">
          <mxGeometry x="55" y="352" width="849" height="261" as="geometry" />
        </mxCell>
        <mxCell id="kjuvxPoz1kRf0Xiqibgf-593" value="" style="verticalLabelPosition=bottom;shadow=0;dashed=0;align=center;html=1;verticalAlign=top;strokeWidth=1;shape=mxgraph.mockup.navigation.scrollBar;strokeColor=#999999;barPos=20;fillColor2=#99ddff;strokeColor2=none;direction=north;" vertex="1" parent="kjuvxPoz1kRf0Xiqibgf-577">
          <mxGeometry x="55" y="352" width="20" height="261" as="geometry" />
        </mxCell>
        <mxCell id="kjuvxPoz1kRf0Xiqibgf-594" value="Equipment" style="text;strokeColor=none;fillColor=none;align=left;verticalAlign=middle;spacingLeft=4;spacingRight=4;overflow=hidden;points=[[0,0.5],[1,0.5]];portConstraint=eastwest;rotatable=0;whiteSpace=wrap;html=1;" vertex="1" parent="kjuvxPoz1kRf0Xiqibgf-577">
          <mxGeometry x="85" y="358" width="80" height="30" as="geometry" />
        </mxCell>
        <mxCell id="kjuvxPoz1kRf0Xiqibgf-595" value="Status" style="text;strokeColor=none;fillColor=none;align=left;verticalAlign=middle;spacingLeft=4;spacingRight=4;overflow=hidden;points=[[0,0.5],[1,0.5]];portConstraint=eastwest;rotatable=0;whiteSpace=wrap;html=1;" vertex="1" parent="kjuvxPoz1kRf0Xiqibgf-577">
          <mxGeometry x="248" y="358" width="80" height="30" as="geometry" />
        </mxCell>
        <mxCell id="kjuvxPoz1kRf0Xiqibgf-596" value="Task / Team" style="text;strokeColor=none;fillColor=none;align=left;verticalAlign=middle;spacingLeft=4;spacingRight=4;overflow=hidden;points=[[0,0.5],[1,0.5]];portConstraint=eastwest;rotatable=0;whiteSpace=wrap;html=1;" vertex="1" parent="kjuvxPoz1kRf0Xiqibgf-577">
          <mxGeometry x="316" y="358" width="80" height="30" as="geometry" />
        </mxCell>
        <mxCell id="kjuvxPoz1kRf0Xiqibgf-597" value="Location" style="text;strokeColor=none;fillColor=none;align=left;verticalAlign=middle;spacingLeft=4;spacingRight=4;overflow=hidden;points=[[0,0.5],[1,0.5]];portConstraint=eastwest;rotatable=0;whiteSpace=wrap;html=1;" vertex="1" parent="kjuvxPoz1kRf0Xiqibgf-577">
          <mxGeometry x="511" y="358" width="80" height="30" as="geometry" />
        </mxCell>
        <mxCell id="kjuvxPoz1kRf0Xiqibgf-598" value="Assigned To" style="text;strokeColor=none;fillColor=none;align=left;verticalAlign=middle;spacingLeft=4;spacingRight=4;overflow=hidden;points=[[0,0.5],[1,0.5]];portConstraint=eastwest;rotatable=0;whiteSpace=wrap;html=1;" vertex="1" parent="kjuvxPoz1kRf0Xiqibgf-577">
          <mxGeometry x="626" y="358" width="80" height="30" as="geometry" />
        </mxCell>
        <mxCell id="kjuvxPoz1kRf0Xiqibgf-599" value="" style="endArrow=none;html=1;rounded=0;exitX=0.132;exitY=1.009;exitDx=0;exitDy=0;exitPerimeter=0;" edge="1" parent="kjuvxPoz1kRf0Xiqibgf-577" source="kjuvxPoz1kRf0Xiqibgf-592">
          <mxGeometry width="50" height="50" relative="1" as="geometry">
            <mxPoint x="170" y="606" as="sourcePoint" />
            <mxPoint x="166" y="354" as="targetPoint" />
          </mxGeometry>
        </mxCell>
        <mxCell id="kjuvxPoz1kRf0Xiqibgf-600" value="" style="endArrow=none;html=1;rounded=0;exitX=0.143;exitY=1;exitDx=0;exitDy=0;exitPerimeter=0;" edge="1" parent="kjuvxPoz1kRf0Xiqibgf-577">
          <mxGeometry width="50" height="50" relative="1" as="geometry">
            <mxPoint x="236" y="611" as="sourcePoint" />
            <mxPoint x="236" y="352" as="targetPoint" />
          </mxGeometry>
        </mxCell>
        <mxCell id="kjuvxPoz1kRf0Xiqibgf-601" value="" style="endArrow=none;html=1;rounded=0;exitX=0.143;exitY=1;exitDx=0;exitDy=0;exitPerimeter=0;" edge="1" parent="kjuvxPoz1kRf0Xiqibgf-577">
          <mxGeometry width="50" height="50" relative="1" as="geometry">
            <mxPoint x="309" y="613" as="sourcePoint" />
            <mxPoint x="309" y="354" as="targetPoint" />
          </mxGeometry>
        </mxCell>
        <mxCell id="kjuvxPoz1kRf0Xiqibgf-602" value="" style="endArrow=none;html=1;rounded=0;exitX=0.143;exitY=1;exitDx=0;exitDy=0;exitPerimeter=0;" edge="1" parent="kjuvxPoz1kRf0Xiqibgf-577">
          <mxGeometry width="50" height="50" relative="1" as="geometry">
            <mxPoint x="495" y="611" as="sourcePoint" />
            <mxPoint x="495" y="352" as="targetPoint" />
          </mxGeometry>
        </mxCell>
        <mxCell id="kjuvxPoz1kRf0Xiqibgf-603" value="" style="endArrow=none;html=1;rounded=0;exitX=0.143;exitY=1;exitDx=0;exitDy=0;exitPerimeter=0;" edge="1" parent="kjuvxPoz1kRf0Xiqibgf-577">
          <mxGeometry width="50" height="50" relative="1" as="geometry">
            <mxPoint x="606" y="611" as="sourcePoint" />
            <mxPoint x="606" y="352" as="targetPoint" />
          </mxGeometry>
        </mxCell>
        <mxCell id="kjuvxPoz1kRf0Xiqibgf-604" value="Laptop" style="text;html=1;strokeColor=none;fillColor=none;align=center;verticalAlign=middle;whiteSpace=wrap;rounded=0;" vertex="1" parent="kjuvxPoz1kRf0Xiqibgf-577">
          <mxGeometry x="81" y="393" width="60" height="30" as="geometry" />
        </mxCell>
        <mxCell id="kjuvxPoz1kRf0Xiqibgf-605" value="001" style="text;html=1;strokeColor=none;fillColor=none;align=center;verticalAlign=middle;whiteSpace=wrap;rounded=0;" vertex="1" parent="kjuvxPoz1kRf0Xiqibgf-577">
          <mxGeometry x="170" y="393" width="60" height="30" as="geometry" />
        </mxCell>
        <mxCell id="kjuvxPoz1kRf0Xiqibgf-606" value="Appivate" style="text;html=1;strokeColor=none;fillColor=none;align=center;verticalAlign=middle;whiteSpace=wrap;rounded=0;" vertex="1" parent="kjuvxPoz1kRf0Xiqibgf-577">
          <mxGeometry x="416" y="394" width="60" height="29" as="geometry" />
        </mxCell>
        <mxCell id="kjuvxPoz1kRf0Xiqibgf-607" value="ODST" style="text;html=1;strokeColor=none;fillColor=none;align=center;verticalAlign=middle;whiteSpace=wrap;rounded=0;" vertex="1" parent="kjuvxPoz1kRf0Xiqibgf-577">
          <mxGeometry x="328" y="394" width="60" height="29" as="geometry" />
        </mxCell>
        <mxCell id="kjuvxPoz1kRf0Xiqibgf-608" value="Stokenchurch" style="text;html=1;strokeColor=none;fillColor=none;align=center;verticalAlign=middle;whiteSpace=wrap;rounded=0;" vertex="1" parent="kjuvxPoz1kRf0Xiqibgf-577">
          <mxGeometry x="516" y="394" width="60" height="29" as="geometry" />
        </mxCell>
        <mxCell id="kjuvxPoz1kRf0Xiqibgf-609" value="Kieran H" style="text;html=1;strokeColor=none;fillColor=none;align=center;verticalAlign=middle;whiteSpace=wrap;rounded=0;" vertex="1" parent="kjuvxPoz1kRf0Xiqibgf-577">
          <mxGeometry x="735" y="393" width="60" height="29" as="geometry" />
        </mxCell>
        <mxCell id="kjuvxPoz1kRf0Xiqibgf-610" value="" style="endArrow=none;html=1;rounded=0;exitX=0.143;exitY=1;exitDx=0;exitDy=0;exitPerimeter=0;" edge="1" parent="kjuvxPoz1kRf0Xiqibgf-577">
          <mxGeometry width="50" height="50" relative="1" as="geometry">
            <mxPoint x="712" y="612" as="sourcePoint" />
            <mxPoint x="712" y="353" as="targetPoint" />
          </mxGeometry>
        </mxCell>
        <mxCell id="kjuvxPoz1kRf0Xiqibgf-611" value="Craig A" style="text;html=1;strokeColor=none;fillColor=none;align=center;verticalAlign=middle;whiteSpace=wrap;rounded=0;" vertex="1" parent="kjuvxPoz1kRf0Xiqibgf-577">
          <mxGeometry x="634" y="393" width="60" height="29" as="geometry" />
        </mxCell>
        <mxCell id="kjuvxPoz1kRf0Xiqibgf-612" value="" style="line;strokeWidth=1;rotatable=0;dashed=0;labelPosition=right;align=left;verticalAlign=middle;spacingTop=0;spacingLeft=6;points=[];portConstraint=eastwest;" vertex="1" parent="kjuvxPoz1kRf0Xiqibgf-577">
          <mxGeometry x="74" y="382" width="828" height="10" as="geometry" />
        </mxCell>
        <mxCell id="kjuvxPoz1kRf0Xiqibgf-613" value="S/N" style="text;strokeColor=none;fillColor=none;align=left;verticalAlign=middle;spacingLeft=4;spacingRight=4;overflow=hidden;points=[[0,0.5],[1,0.5]];portConstraint=eastwest;rotatable=0;whiteSpace=wrap;html=1;" vertex="1" parent="kjuvxPoz1kRf0Xiqibgf-577">
          <mxGeometry x="175" y="357" width="80" height="30" as="geometry" />
        </mxCell>
        <mxCell id="kjuvxPoz1kRf0Xiqibgf-614" value="Unit" style="text;strokeColor=none;fillColor=none;align=left;verticalAlign=middle;spacingLeft=4;spacingRight=4;overflow=hidden;points=[[0,0.5],[1,0.5]];portConstraint=eastwest;rotatable=0;whiteSpace=wrap;html=1;" vertex="1" parent="kjuvxPoz1kRf0Xiqibgf-577">
          <mxGeometry x="416" y="357" width="80" height="30" as="geometry" />
        </mxCell>
        <mxCell id="kjuvxPoz1kRf0Xiqibgf-615" value="" style="rounded=1;whiteSpace=wrap;html=1;fillColor=#d5e8d4;strokeColor=#82b366;" vertex="1" parent="kjuvxPoz1kRf0Xiqibgf-577">
          <mxGeometry x="238" y="397" width="69" height="25" as="geometry" />
        </mxCell>
        <mxCell id="kjuvxPoz1kRf0Xiqibgf-616" value="Owner" style="text;strokeColor=none;fillColor=none;align=left;verticalAlign=middle;spacingLeft=4;spacingRight=4;overflow=hidden;points=[[0,0.5],[1,0.5]];portConstraint=eastwest;rotatable=0;whiteSpace=wrap;html=1;" vertex="1" parent="kjuvxPoz1kRf0Xiqibgf-577">
          <mxGeometry x="734" y="357" width="80" height="30" as="geometry" />
        </mxCell>
        <mxCell id="kjuvxPoz1kRf0Xiqibgf-617" value="" style="strokeColor=#999999;verticalLabelPosition=bottom;shadow=0;dashed=0;verticalAlign=top;strokeWidth=2;html=1;shape=mxgraph.mockup.misc.trashcanIcon;" vertex="1" parent="kjuvxPoz1kRf0Xiqibgf-577">
          <mxGeometry x="841" y="391" width="32" height="32" as="geometry" />
        </mxCell>
        <mxCell id="kjuvxPoz1kRf0Xiqibgf-618" value="Delete" style="text;strokeColor=none;fillColor=none;align=left;verticalAlign=middle;spacingLeft=4;spacingRight=4;overflow=hidden;points=[[0,0.5],[1,0.5]];portConstraint=eastwest;rotatable=0;whiteSpace=wrap;html=1;" vertex="1" parent="kjuvxPoz1kRf0Xiqibgf-577">
          <mxGeometry x="828" y="355" width="80" height="30" as="geometry" />
        </mxCell>
        <mxCell id="kjuvxPoz1kRf0Xiqibgf-619" value="" style="endArrow=none;html=1;rounded=0;exitX=0.143;exitY=1;exitDx=0;exitDy=0;exitPerimeter=0;" edge="1" parent="kjuvxPoz1kRf0Xiqibgf-577">
          <mxGeometry width="50" height="50" relative="1" as="geometry">
            <mxPoint x="814" y="607" as="sourcePoint" />
            <mxPoint x="814" y="348" as="targetPoint" />
          </mxGeometry>
        </mxCell>
        <mxCell id="kjuvxPoz1kRf0Xiqibgf-620" value="Search by ID" style="text;html=1;strokeColor=none;fillColor=none;align=center;verticalAlign=middle;whiteSpace=wrap;rounded=0;" vertex="1" parent="kjuvxPoz1kRf0Xiqibgf-577">
          <mxGeometry x="70" y="194" width="95" height="30" as="geometry" />
        </mxCell>
        <mxCell id="kjuvxPoz1kRf0Xiqibgf-621" value="Id" style="strokeWidth=1;shadow=0;dashed=0;align=center;html=1;shape=mxgraph.mockup.forms.searchBox;strokeColor=#999999;mainText=;strokeColor2=#008cff;fontColor=#666666;fontSize=17;align=left;spacingLeft=3;whiteSpace=wrap;" vertex="1" parent="kjuvxPoz1kRf0Xiqibgf-577">
          <mxGeometry x="168" y="192" width="150" height="30" as="geometry" />
        </mxCell>
        <mxCell id="kjuvxPoz1kRf0Xiqibgf-622" value="Task" style="rounded=1;fillColor=#F1F2F4;strokeColor=none;html=1;whiteSpace=wrap;fontColor=#596780;align=left;fontSize=12;spacingLeft=10;sketch=0;" vertex="1" parent="kjuvxPoz1kRf0Xiqibgf-577">
          <mxGeometry x="77" y="247" width="89" height="33" as="geometry" />
        </mxCell>
        <mxCell id="kjuvxPoz1kRf0Xiqibgf-623" value="" style="shape=triangle;direction=south;fillColor=#596780;strokeColor=none;html=1;sketch=0;" vertex="1" parent="kjuvxPoz1kRf0Xiqibgf-622">
          <mxGeometry x="1" y="0.5" width="12" height="6" relative="1" as="geometry">
            <mxPoint x="-20" y="-3" as="offset" />
          </mxGeometry>
        </mxCell>
        <mxCell id="kjuvxPoz1kRf0Xiqibgf-624" value="Unit" style="rounded=1;fillColor=#F1F2F4;strokeColor=none;html=1;whiteSpace=wrap;fontColor=#596780;align=left;fontSize=12;spacingLeft=10;sketch=0;" vertex="1" parent="kjuvxPoz1kRf0Xiqibgf-577">
          <mxGeometry x="205" y="247" width="89" height="33" as="geometry" />
        </mxCell>
        <mxCell id="kjuvxPoz1kRf0Xiqibgf-625" value="" style="shape=triangle;direction=south;fillColor=#596780;strokeColor=none;html=1;sketch=0;" vertex="1" parent="kjuvxPoz1kRf0Xiqibgf-624">
          <mxGeometry x="1" y="0.5" width="12" height="6" relative="1" as="geometry">
            <mxPoint x="-20" y="-3" as="offset" />
          </mxGeometry>
        </mxCell>
        <mxCell id="kjuvxPoz1kRf0Xiqibgf-626" value="Team" style="rounded=1;fillColor=#F1F2F4;strokeColor=none;html=1;whiteSpace=wrap;fontColor=#596780;align=left;fontSize=12;spacingLeft=10;sketch=0;" vertex="1" parent="kjuvxPoz1kRf0Xiqibgf-577">
          <mxGeometry x="333" y="247" width="89" height="33" as="geometry" />
        </mxCell>
        <mxCell id="kjuvxPoz1kRf0Xiqibgf-627" value="" style="shape=triangle;direction=south;fillColor=#596780;strokeColor=none;html=1;sketch=0;" vertex="1" parent="kjuvxPoz1kRf0Xiqibgf-626">
          <mxGeometry x="1" y="0.5" width="12" height="6" relative="1" as="geometry">
            <mxPoint x="-20" y="-3" as="offset" />
          </mxGeometry>
        </mxCell>
        <mxCell id="kjuvxPoz1kRf0Xiqibgf-628" value="Status" style="rounded=1;fillColor=#F1F2F4;strokeColor=none;html=1;whiteSpace=wrap;fontColor=#596780;align=left;fontSize=12;spacingLeft=10;sketch=0;" vertex="1" parent="kjuvxPoz1kRf0Xiqibgf-577">
          <mxGeometry x="461" y="247" width="89" height="33" as="geometry" />
        </mxCell>
        <mxCell id="kjuvxPoz1kRf0Xiqibgf-629" value="" style="shape=triangle;direction=south;fillColor=#596780;strokeColor=none;html=1;sketch=0;" vertex="1" parent="kjuvxPoz1kRf0Xiqibgf-628">
          <mxGeometry x="1" y="0.5" width="12" height="6" relative="1" as="geometry">
            <mxPoint x="-20" y="-3" as="offset" />
          </mxGeometry>
        </mxCell>
        <mxCell id="kjuvxPoz1kRf0Xiqibgf-630" value="Equipment Type" style="rounded=1;fillColor=#F1F2F4;strokeColor=none;html=1;whiteSpace=wrap;fontColor=#596780;align=left;fontSize=12;spacingLeft=10;sketch=0;" vertex="1" parent="kjuvxPoz1kRf0Xiqibgf-577">
          <mxGeometry x="589" y="246" width="127" height="33" as="geometry" />
        </mxCell>
        <mxCell id="kjuvxPoz1kRf0Xiqibgf-631" value="" style="shape=triangle;direction=south;fillColor=#596780;strokeColor=none;html=1;sketch=0;" vertex="1" parent="kjuvxPoz1kRf0Xiqibgf-630">
          <mxGeometry x="1" y="0.5" width="12" height="6" relative="1" as="geometry">
            <mxPoint x="-20" y="-3" as="offset" />
          </mxGeometry>
        </mxCell>
        <mxCell id="kjuvxPoz1kRf0Xiqibgf-632" value="Location" style="rounded=1;fillColor=#F1F2F4;strokeColor=none;html=1;whiteSpace=wrap;fontColor=#596780;align=left;fontSize=12;spacingLeft=10;sketch=0;" vertex="1" parent="kjuvxPoz1kRf0Xiqibgf-577">
          <mxGeometry x="76" y="286" width="89" height="33" as="geometry" />
        </mxCell>
        <mxCell id="kjuvxPoz1kRf0Xiqibgf-633" value="" style="shape=triangle;direction=south;fillColor=#596780;strokeColor=none;html=1;sketch=0;" vertex="1" parent="kjuvxPoz1kRf0Xiqibgf-632">
          <mxGeometry x="1" y="0.5" width="12" height="6" relative="1" as="geometry">
            <mxPoint x="-20" y="-3" as="offset" />
          </mxGeometry>
        </mxCell>
        <mxCell id="kjuvxPoz1kRf0Xiqibgf-634" value="Owner" style="rounded=1;fillColor=#F1F2F4;strokeColor=none;html=1;whiteSpace=wrap;fontColor=#596780;align=left;fontSize=12;spacingLeft=10;sketch=0;" vertex="1" parent="kjuvxPoz1kRf0Xiqibgf-577">
          <mxGeometry x="205" y="286" width="89" height="33" as="geometry" />
        </mxCell>
        <mxCell id="kjuvxPoz1kRf0Xiqibgf-635" value="" style="shape=triangle;direction=south;fillColor=#596780;strokeColor=none;html=1;sketch=0;" vertex="1" parent="kjuvxPoz1kRf0Xiqibgf-634">
          <mxGeometry x="1" y="0.5" width="12" height="6" relative="1" as="geometry">
            <mxPoint x="-20" y="-3" as="offset" />
          </mxGeometry>
        </mxCell>
        <mxCell id="kjuvxPoz1kRf0Xiqibgf-636" value="Change" style="rounded=1;fillColor=#F1F2F4;strokeColor=none;html=1;whiteSpace=wrap;fontColor=#596780;align=left;fontSize=12;spacingLeft=10;sketch=0;" vertex="1" parent="kjuvxPoz1kRf0Xiqibgf-577">
          <mxGeometry x="240.5" y="423" width="64" height="33" as="geometry" />
        </mxCell>
        <mxCell id="kjuvxPoz1kRf0Xiqibgf-637" value="" style="shape=triangle;direction=south;fillColor=#596780;strokeColor=none;html=1;sketch=0;" vertex="1" parent="kjuvxPoz1kRf0Xiqibgf-636">
          <mxGeometry x="1" y="0.5" width="12" height="6" relative="1" as="geometry">
            <mxPoint x="-20" y="-3" as="offset" />
          </mxGeometry>
        </mxCell>
        <mxCell id="kjuvxPoz1kRf0Xiqibgf-638" value="Change" style="rounded=1;fillColor=#F1F2F4;strokeColor=none;html=1;whiteSpace=wrap;fontColor=#596780;align=left;fontSize=12;spacingLeft=10;sketch=0;" vertex="1" parent="kjuvxPoz1kRf0Xiqibgf-577">
          <mxGeometry x="716" y="418" width="100.5" height="33" as="geometry" />
        </mxCell>
        <mxCell id="kjuvxPoz1kRf0Xiqibgf-639" value="" style="shape=triangle;direction=south;fillColor=#596780;strokeColor=none;html=1;sketch=0;" vertex="1" parent="kjuvxPoz1kRf0Xiqibgf-638">
          <mxGeometry x="1" y="0.5" width="12" height="6" relative="1" as="geometry">
            <mxPoint x="-20" y="-3" as="offset" />
          </mxGeometry>
        </mxCell>
        <mxCell id="kjuvxPoz1kRf0Xiqibgf-640" value="Change" style="rounded=1;fillColor=#F1F2F4;strokeColor=none;html=1;whiteSpace=wrap;fontColor=#596780;align=left;fontSize=12;spacingLeft=10;sketch=0;" vertex="1" parent="kjuvxPoz1kRf0Xiqibgf-577">
          <mxGeometry x="611" y="418" width="100.5" height="33" as="geometry" />
        </mxCell>
        <mxCell id="kjuvxPoz1kRf0Xiqibgf-641" value="" style="shape=triangle;direction=south;fillColor=#596780;strokeColor=none;html=1;sketch=0;" vertex="1" parent="kjuvxPoz1kRf0Xiqibgf-640">
          <mxGeometry x="1" y="0.5" width="12" height="6" relative="1" as="geometry">
            <mxPoint x="-20" y="-3" as="offset" />
          </mxGeometry>
        </mxCell>
        <mxCell id="kjuvxPoz1kRf0Xiqibgf-642" value="Change" style="rounded=1;fillColor=#F1F2F4;strokeColor=none;html=1;whiteSpace=wrap;fontColor=#596780;align=left;fontSize=12;spacingLeft=10;sketch=0;" vertex="1" parent="kjuvxPoz1kRf0Xiqibgf-577">
          <mxGeometry x="504.75" y="422.5" width="100.5" height="33" as="geometry" />
        </mxCell>
        <mxCell id="kjuvxPoz1kRf0Xiqibgf-643" value="" style="shape=triangle;direction=south;fillColor=#596780;strokeColor=none;html=1;sketch=0;" vertex="1" parent="kjuvxPoz1kRf0Xiqibgf-642">
          <mxGeometry x="1" y="0.5" width="12" height="6" relative="1" as="geometry">
            <mxPoint x="-20" y="-3" as="offset" />
          </mxGeometry>
        </mxCell>
        <mxCell id="kjuvxPoz1kRf0Xiqibgf-644" value="Change" style="rounded=1;fillColor=#F1F2F4;strokeColor=none;html=1;whiteSpace=wrap;fontColor=#596780;align=left;fontSize=12;spacingLeft=10;sketch=0;" vertex="1" parent="kjuvxPoz1kRf0Xiqibgf-577">
          <mxGeometry x="412" y="425" width="79" height="33" as="geometry" />
        </mxCell>
        <mxCell id="kjuvxPoz1kRf0Xiqibgf-645" value="" style="shape=triangle;direction=south;fillColor=#596780;strokeColor=none;html=1;sketch=0;" vertex="1" parent="kjuvxPoz1kRf0Xiqibgf-644">
          <mxGeometry x="1" y="0.5" width="12" height="6" relative="1" as="geometry">
            <mxPoint x="-20" y="-3" as="offset" />
          </mxGeometry>
        </mxCell>
        <mxCell id="kjuvxPoz1kRf0Xiqibgf-646" value="Change" style="rounded=1;fillColor=#F1F2F4;strokeColor=none;html=1;whiteSpace=wrap;fontColor=#596780;align=left;fontSize=12;spacingLeft=10;sketch=0;" vertex="1" parent="kjuvxPoz1kRf0Xiqibgf-577">
          <mxGeometry x="318" y="426.5" width="81" height="33" as="geometry" />
        </mxCell>
        <mxCell id="kjuvxPoz1kRf0Xiqibgf-647" value="" style="shape=triangle;direction=south;fillColor=#596780;strokeColor=none;html=1;sketch=0;" vertex="1" parent="kjuvxPoz1kRf0Xiqibgf-646">
          <mxGeometry x="1" y="0.5" width="12" height="6" relative="1" as="geometry">
            <mxPoint x="-20" y="-3" as="offset" />
          </mxGeometry>
        </mxCell>
        <mxCell id="kjuvxPoz1kRf0Xiqibgf-648" value="Change" style="rounded=1;fillColor=#F1F2F4;strokeColor=none;html=1;whiteSpace=wrap;fontColor=#596780;align=left;fontSize=12;spacingLeft=10;sketch=0;" vertex="1" parent="kjuvxPoz1kRf0Xiqibgf-577">
          <mxGeometry x="168" y="422" width="64" height="33" as="geometry" />
        </mxCell>
        <mxCell id="kjuvxPoz1kRf0Xiqibgf-649" value="" style="shape=triangle;direction=south;fillColor=#596780;strokeColor=none;html=1;sketch=0;" vertex="1" parent="kjuvxPoz1kRf0Xiqibgf-648">
          <mxGeometry x="1" y="0.5" width="12" height="6" relative="1" as="geometry">
            <mxPoint x="-20" y="-3" as="offset" />
          </mxGeometry>
        </mxCell>
        <mxCell id="kjuvxPoz1kRf0Xiqibgf-650" value="Change" style="rounded=1;fillColor=#F1F2F4;strokeColor=none;html=1;whiteSpace=wrap;fontColor=#596780;align=left;fontSize=12;spacingLeft=10;sketch=0;" vertex="1" parent="kjuvxPoz1kRf0Xiqibgf-577">
          <mxGeometry x="85" y="422" width="64" height="33" as="geometry" />
        </mxCell>
        <mxCell id="kjuvxPoz1kRf0Xiqibgf-651" value="" style="shape=triangle;direction=south;fillColor=#596780;strokeColor=none;html=1;sketch=0;" vertex="1" parent="kjuvxPoz1kRf0Xiqibgf-650">
          <mxGeometry x="1" y="0.5" width="12" height="6" relative="1" as="geometry">
            <mxPoint x="-20" y="-3" as="offset" />
          </mxGeometry>
        </mxCell>
        <mxCell id="kjuvxPoz1kRf0Xiqibgf-652" value="" style="endArrow=none;html=1;rounded=0;exitX=0.143;exitY=1;exitDx=0;exitDy=0;exitPerimeter=0;" edge="1" parent="kjuvxPoz1kRf0Xiqibgf-577">
          <mxGeometry width="50" height="50" relative="1" as="geometry">
            <mxPoint x="405" y="616" as="sourcePoint" />
            <mxPoint x="405" y="357" as="targetPoint" />
          </mxGeometry>
        </mxCell>
        <mxCell id="kjuvxPoz1kRf0Xiqibgf-653" value="Add New" style="rounded=1;fillColor=#d5e8d4;strokeColor=#82b366;html=1;whiteSpace=wrap;align=center;verticalAlign=middle;fontStyle=0;fontSize=12;sketch=0;" vertex="1" parent="kjuvxPoz1kRf0Xiqibgf-577">
          <mxGeometry x="782" y="239" width="86" height="33" as="geometry" />
        </mxCell>
        <mxCell id="kjuvxPoz1kRf0Xiqibgf-654" value="" style="endArrow=classic;html=1;rounded=0;" edge="1" parent="1" source="kjuvxPoz1kRf0Xiqibgf-653">
          <mxGeometry width="50" height="50" relative="1" as="geometry">
            <mxPoint x="1847" y="1236" as="sourcePoint" />
            <mxPoint x="1760" y="1219" as="targetPoint" />
          </mxGeometry>
        </mxCell>
        <mxCell id="kjuvxPoz1kRf0Xiqibgf-655" value="" style="strokeWidth=1;shadow=0;dashed=0;align=center;html=1;shape=mxgraph.mockup.containers.browserWindow;rSize=0;strokeColor=#666666;strokeColor2=#008cff;strokeColor3=#c4c4c4;mainText=,;recursiveResize=0;movable=1;resizable=1;rotatable=1;deletable=1;editable=1;locked=0;connectable=1;" vertex="1" parent="1">
          <mxGeometry x="1765" y="972" width="926.32" height="640" as="geometry" />
        </mxCell>
        <mxCell id="kjuvxPoz1kRf0Xiqibgf-656" value="Page 1" style="strokeWidth=1;shadow=0;dashed=0;align=center;html=1;shape=mxgraph.mockup.containers.anchor;fontSize=17;fontColor=#666666;align=left;whiteSpace=wrap;" vertex="1" parent="kjuvxPoz1kRf0Xiqibgf-655">
          <mxGeometry x="60" y="12" width="110" height="26" as="geometry" />
        </mxCell>
        <mxCell id="kjuvxPoz1kRf0Xiqibgf-657" value="https://www.StockR.mod.gov.uk/add" style="strokeWidth=1;shadow=0;dashed=0;align=center;html=1;shape=mxgraph.mockup.containers.anchor;rSize=0;fontSize=17;fontColor=#666666;align=left;" vertex="1" parent="kjuvxPoz1kRf0Xiqibgf-655">
          <mxGeometry x="130" y="60" width="250" height="26" as="geometry" />
        </mxCell>
        <mxCell id="kjuvxPoz1kRf0Xiqibgf-658" value="" style="rounded=0;whiteSpace=wrap;html=1;" vertex="1" parent="kjuvxPoz1kRf0Xiqibgf-655">
          <mxGeometry y="110" width="926" height="60" as="geometry" />
        </mxCell>
        <mxCell id="kjuvxPoz1kRf0Xiqibgf-659" value="TrackR" style="text;html=1;strokeColor=none;fillColor=none;align=center;verticalAlign=middle;whiteSpace=wrap;rounded=0;" vertex="1" parent="kjuvxPoz1kRf0Xiqibgf-655">
          <mxGeometry x="14" y="129" width="60" height="30" as="geometry" />
        </mxCell>
        <mxCell id="kjuvxPoz1kRf0Xiqibgf-660" value="" style="rounded=1;whiteSpace=wrap;html=1;" vertex="1" parent="kjuvxPoz1kRf0Xiqibgf-655">
          <mxGeometry x="235" y="238" width="465" height="274.06" as="geometry" />
        </mxCell>
        <mxCell id="kjuvxPoz1kRf0Xiqibgf-661" value="Name&lt;sup&gt;&lt;font color=&quot;#ff0000&quot;&gt;*&lt;/font&gt;&lt;/sup&gt;" style="fillColor=none;strokeColor=none;html=1;fontSize=11;fontStyle=0;align=left;fontColor=#596780;fontStyle=1;fontSize=11" vertex="1" parent="kjuvxPoz1kRf0Xiqibgf-655">
          <mxGeometry x="312" y="297" width="240" height="20" as="geometry" />
        </mxCell>
        <mxCell id="kjuvxPoz1kRf0Xiqibgf-662" value="Kieran H" style="rounded=1;arcSize=9;align=left;spacingLeft=5;strokeColor=#4C9AFF;html=1;strokeWidth=2;fontSize=12" vertex="1" parent="kjuvxPoz1kRf0Xiqibgf-655">
          <mxGeometry x="312" y="322" width="290" height="33" as="geometry" />
        </mxCell>
        <mxCell id="kjuvxPoz1kRf0Xiqibgf-663" value="Password&lt;sup&gt;&lt;font color=&quot;#ff0000&quot;&gt;*&lt;/font&gt;&lt;/sup&gt;" style="fillColor=none;strokeColor=none;html=1;fontSize=11;fontStyle=0;align=left;fontColor=#596780;fontStyle=1;fontSize=11" vertex="1" parent="kjuvxPoz1kRf0Xiqibgf-655">
          <mxGeometry x="312" y="385" width="240" height="20" as="geometry" />
        </mxCell>
        <mxCell id="kjuvxPoz1kRf0Xiqibgf-664" value="&amp;#8226;&amp;#8226;&amp;#8226;&amp;#8226;&amp;#8226;&amp;#8226;&amp;#8226;&amp;#8226;" style="rounded=1;arcSize=9;align=left;spacingLeft=5;strokeColor=#4C9AFF;html=1;strokeWidth=2;fontSize=12" vertex="1" parent="kjuvxPoz1kRf0Xiqibgf-655">
          <mxGeometry x="312" y="410" width="290" height="33" as="geometry" />
        </mxCell>
        <mxCell id="kjuvxPoz1kRf0Xiqibgf-665" value="" style="endArrow=classic;html=1;rounded=0;exitX=0.38;exitY=0.15;exitDx=0;exitDy=0;exitPerimeter=0;entryX=-0.001;entryY=0.481;entryDx=0;entryDy=0;entryPerimeter=0;" edge="1" parent="1" source="kjuvxPoz1kRf0Xiqibgf-308" target="kjuvxPoz1kRf0Xiqibgf-436">
          <mxGeometry width="50" height="50" relative="1" as="geometry">
            <mxPoint x="1741" y="24" as="sourcePoint" />
            <mxPoint x="1791" y="-26" as="targetPoint" />
          </mxGeometry>
        </mxCell>
        <mxCell id="kjuvxPoz1kRf0Xiqibgf-666" value="" style="endArrow=classic;html=1;rounded=0;exitX=0.5;exitY=1;exitDx=0;exitDy=0;entryX=0.48;entryY=0;entryDx=0;entryDy=0;entryPerimeter=0;" edge="1" parent="1" source="kjuvxPoz1kRf0Xiqibgf-574" target="kjuvxPoz1kRf0Xiqibgf-577">
          <mxGeometry width="50" height="50" relative="1" as="geometry">
            <mxPoint x="965" y="926" as="sourcePoint" />
            <mxPoint x="1015" y="876" as="targetPoint" />
          </mxGeometry>
        </mxCell>
        <mxCell id="kjuvxPoz1kRf0Xiqibgf-673" value="&lt;h1&gt;Keep navbar consitent and share across!&lt;/h1&gt;" style="text;html=1;strokeColor=none;fillColor=none;spacing=5;spacingTop=-20;whiteSpace=wrap;overflow=hidden;rounded=0;" vertex="1" parent="1">
          <mxGeometry x="-1135" y="-18" width="190" height="120" as="geometry" />
        </mxCell>
      </root>
    </mxGraphModel>
  </diagram>
</mxfile>
